<?xml version="1.0" encoding="UTF-8" standalone="no"?>
<svg
   xmlns:dc="http://purl.org/dc/elements/1.1/"
   xmlns:cc="http://creativecommons.org/ns#"
   xmlns:rdf="http://www.w3.org/1999/02/22-rdf-syntax-ns#"
   xmlns:svg="http://www.w3.org/2000/svg"
   xmlns="http://www.w3.org/2000/svg"
   id="svg8"
   version="1.1"
   viewBox="0 0 164 83"
   height="83mm"
   width="164mm">
  <defs
     id="defs2" />
  <metadata
     id="metadata5">
    <rdf:RDF>
      <cc:Work
         rdf:about="">
        <dc:format>image/svg+xml</dc:format>
        <dc:type
           rdf:resource="http://purl.org/dc/dcmitype/StillImage" />
        <dc:title></dc:title>
      </cc:Work>
    </rdf:RDF>
  </metadata>
  <g
     id="layer86">
    <path
       id="path1464"
       d="m 8.1359675,4.4920191 c 0,0 38.5035925,-2.790336 70.0983425,-2.918115 31.59475,-0.127777 75.92097,2.838283 75.92097,2.838283 0,0 4.41483,0.1006 5.14614,1.075994 0.7313,0.975394 1.43879,1.859179 1.57558,3.499263 0.13679,1.6400829 1.69986,24.2274139 1.69986,24.2274139 v 18.286258 c 0,5.944315 -1.55859,21.874144 -1.55859,21.874144 0,0 0.11425,2.292101 -0.89251,3.372416 -1.00677,1.080313 -2.64569,1.531723 -2.64569,1.531723 l -23.28161,1.08639 c 0,0 -11.33699,0.91004 -29.63659,0.97178 -16.296647,0.055 -32.053614,0.64601 -37.902257,0.55301 -5.848647,-0.093 -26.834663,-0.58151 -40.749476,-1.46332 -13.914814,-0.88181 -18.2808335,-1.19423 -18.2808335,-1.19423 0,0 -2.069377,-0.0484 -3.043517,-0.64608 -0.97414,-0.597715 -1.630627,-2.620513 -1.630627,-2.620513 0,0 -1.387906,-22.624613 -1.345063,-34.77651 0.04284,-12.151895 1.439628,-31.3063439 1.439628,-31.3063439 0,0 -0.15138,-1.755687 1.636814,-3.322047 1.788195,-1.566357 3.449429,-1.069488 3.449429,-1.069488 z"
       style="fill:none;stroke:#000000;stroke-width:0.465;stroke-linecap:butt;stroke-linejoin:miter;stroke-miterlimit:4;stroke-dasharray:none;stroke-opacity:1" />
  </g>
  <g
     style="display:inline"
     id="lay_43_0">
    <path
       id="path1083"
       d="m 25.046438,13.44086 c -0.0084,-0.126682 -0.01532,-1.173795 -0.01537,-2.326915 l -1.22e-4,-2.0965875 1.458751,3.97e-5 c 0.802312,2.12e-5 1.801588,0.00706 2.220611,0.015637 l 0.761857,0.015584 v 2.3112858 2.311286 h -2.205236 -2.205236 z"
       style="fill:#000000;stroke-width:0.00580358;stroke-miterlimit:4;stroke-dasharray:none" />
  </g>
  <g
     style="display:inline"
     id="lay_43_1">
    <path
       id="path1060"
       d="m 13.055308,14.387066 c 0,-0.141359 0.0016,-6.5516869 0.0016,-6.5516869"
       style="fill:none;stroke:#000000;stroke-width:0.565;stroke-linecap:butt;stroke-linejoin:miter;stroke-miterlimit:4;stroke-dasharray:none;stroke-opacity:1" />
    <path
       id="path1064"
       d="m 13.020629,11.583723 c 0,0 -2.030127,0.582843 -2.077141,-1.335196"
       style="fill:none;stroke:#000000;stroke-width:0.365;stroke-linecap:butt;stroke-linejoin:miter;stroke-miterlimit:4;stroke-dasharray:none;stroke-opacity:1" />
    <path
       id="path1066"
       d="m 13.21043,11.105391 c 0,0 2.144723,0.07894 2.148581,-1.088509"
       style="fill:none;stroke:#000000;stroke-width:0.365;stroke-linecap:butt;stroke-linejoin:miter;stroke-miterlimit:4;stroke-dasharray:none;stroke-opacity:1" />
    <rect
       y="9.2524643"
       x="14.914342"
       height="1.0326225"
       width="0.91784924"
       id="rect1068"
       style="fill:#000000;stroke-width:0.365001;stroke-miterlimit:4;stroke-dasharray:none" />
    <ellipse
       ry="0.54159325"
       rx="0.52566421"
       cy="10.166569"
       cx="10.971623"
       id="path1070"
       style="fill:#000000;stroke-width:0.365001;stroke-miterlimit:4;stroke-dasharray:none" />
    <ellipse
       ry="0.58341593"
       rx="0.59319073"
       cy="14.221687"
       cx="13.097188"
       id="path1072"
       style="fill:#000000;stroke-width:0.365001;stroke-miterlimit:4;stroke-dasharray:none" />
    <path
       d="m 13.049557,6.68468 0.50378,0.8598409 0.50378,0.859841 -0.996534,0.00637 -0.996534,0.00637 0.492754,-0.8662071 z"
       id="path1078"
       style="fill:#000000;stroke-width:0.365001;stroke-miterlimit:4;stroke-dasharray:none" />
  </g>
  <g
     style="display:inline"
     id="lay_42_0">
    <path
       id="path1057"
       d="m 21.041657,13.612056 -0.726421,-0.0066 V 11.329969 9.0544944 l 1.102373,-0.015663 c 0.606306,-0.00863 1.524119,-0.015663 2.039586,-0.015663 h 0.937212 l 0.01566,1.0314996 c 0.0086,0.567325 0.01566,1.603806 0.01566,2.303293 v 1.271794 l -1.328823,-0.0056 c -0.730853,-0.003 -1.655712,-0.0085 -2.055246,-0.01215 z"
       style="fill:#000000;stroke-width:0.00580358;stroke-miterlimit:4;stroke-dasharray:none" />
  </g>
  <g
     style="display:inline"
     id="lay_42_1">
    <path
       id="path936"
       d="m 2.3374615,25.463373 c -0.019383,-0.0127 0.0079,-0.996548 0.1020059,-3.678637 0.070656,-2.013704 0.1315178,-3.664333 0.1352484,-3.668064 0.0067,-0.0067 1.2746691,-0.02529 5.3434019,-0.07834 l 2.0815406,-0.02714 0.2217527,0.06375 c 0.876215,0.251881 1.749856,0.75587 2.271527,1.31041 0.536866,0.570693 0.802508,1.186474 0.836322,1.938674 0.04961,1.10369 -0.377283,2.097719 -1.288349,2.999909 -0.442008,0.4377 -0.888521,0.771956 -1.4023,1.049753 l -0.199332,0.107775 -4.0376789,-2.64e-4 c -2.220723,-1.91e-4 -4.0495854,-0.0082 -4.0641386,-0.01773 z m 6.5667741,-2.963378 c 0.02241,-0.418468 0.043529,-0.763627 0.046924,-0.767022 0.00339,-0.0034 0.1006713,0.304438 0.2161672,0.684072 0.1154933,0.379635 0.2107936,0.69219 0.2117725,0.694571 0.00106,0.0024 0.1451213,0.01156 0.3203125,0.02043 l 0.3185262,0.01611 0.236027,-0.795112 c 0.151183,-0.509294 0.241835,-0.779889 0.252185,-0.752756 0.0089,0.02331 0.04384,0.334698 0.07767,0.692005 0.03383,0.357306 0.06772,0.694827 0.07532,0.750046 l 0.01381,0.100401 h 0.378714 0.378712 l -0.01479,-0.336637 c -0.0081,-0.185148 -0.02717,-0.857533 -0.0423,-1.494187 -0.01514,-0.636653 -0.03036,-1.161068 -0.03384,-1.165365 -0.0035,-0.0043 -0.237514,-0.02342 -0.520065,-0.0425 -0.345419,-0.02334 -0.518589,-0.02683 -0.528566,-0.01069 -0.0082,0.0132 -0.120619,0.321069 -0.249907,0.684144 -0.1292887,0.363074 -0.2419536,0.655881 -0.2503674,0.650682 -0.00841,-0.0052 -0.1148344,-0.307642 -0.2364872,-0.672092 C 9.372355,20.21177 9.3244257,20.09157 9.2856166,20.082894 c -0.025982,-0.0058 -0.2944177,-0.01336 -0.5965163,-0.0168 l -0.5492697,-0.0062 -2.646e-4,0.118118 c -1.64e-4,0.06496 -0.026633,0.718745 -0.058796,1.452845 -0.03216,0.7341 -0.058581,1.40117 -0.058714,1.482376 l -2.408e-4,0.147645 h 0.4208675 0.4208674 z m -3.0794695,0.688528 c 0.00651,-0.0099 0.053956,-0.173027 0.1054656,-0.362593 l 0.093657,-0.344662 0.1662033,2.64e-4 c 0.091411,1.91e-4 0.1817185,0.01019 0.2006812,0.02217 0.018971,0.01199 0.094208,0.168635 0.1672087,0.348086 l 0.1327309,0.326276 0.5245761,0.02085 c 0.2885176,0.01148 0.5312198,0.01421 0.5393373,0.0061 0.00812,-0.0081 -0.1649916,-0.724437 -0.3846804,-1.59182 l -0.3994388,-1.577062 -0.685083,-0.0062 -0.6850803,-0.0062 -0.4556151,1.588953 c -0.2505866,0.873924 -0.4552254,1.596728 -0.4547518,1.606235 0.00114,0.02278 1.119483,-0.0073 1.1347891,-0.03054 z"
       style="fill:#000000;stroke-width:0.00580358;stroke-miterlimit:4;stroke-dasharray:none" />
    <path
       transform="scale(0.26458333)"
       id="path938"
       d=""
       style="fill:#000000;stroke-width:0.0219348;stroke-miterlimit:4;stroke-dasharray:none" />
    <path
       id="path940"
       d="m 6.2150715,21.603105 c -0.06468,-0.01233 -0.120687,-0.02553 -0.12446,-0.02929 -0.00878,-0.0088 0.1348502,-0.350374 0.1574906,-0.374591 0.00934,-0.01 0.047233,0.06973 0.08418,0.177178 0.036944,0.10745 0.071887,0.208653 0.07765,0.224893 0.011986,0.03376 -0.025559,0.03411 -0.1948604,0.0019 z"
       style="fill:#000000;stroke-width:0.00580358;stroke-miterlimit:4;stroke-dasharray:none" />
  </g>
  <g
     style="display:inline"
     id="lay_41_0">
    <path
       id="path1052"
       d="m 19.359749,12.49325 -0.03797,1.727131 0.385794,0.418414 10.072986,0.113938 0.5881,-0.424815 0.06434,-1.762736 1.044917,-0.02209 -0.01175,-2.3896 -1.03937,-0.03215 0.03284,-1.7038269 -0.533437,-0.575664 -10.018567,-0.03927 -0.552715,0.605216 -0.01574,1.46504"
       style="fill:none;stroke:#000000;stroke-width:0.565;stroke-linecap:butt;stroke-linejoin:miter;stroke-miterlimit:4;stroke-dasharray:none;stroke-opacity:1" />
  </g>
  <g
     style="display:inline"
     id="lay_41_1">
    <path
       id="path965"
       d="m 1.8882117,33.694653 -0.05932,-0.01516 0.1463725,-3.638024 c 0.080505,-2.000911 0.1470636,-3.649935 0.1479079,-3.664498 8.467e-4,-0.01458 0.062639,-0.03275 0.1373709,-0.04042 0.074709,-0.0077 1.8420432,-0.0158 3.9274085,-0.01807 l 3.7915744,-0.0041 0.2751511,0.07378 c 1.366779,0.366496 2.376805,1.178214 2.808682,2.257232 0.426653,1.065967 0.360754,2.45681 -0.159052,3.356861 -0.162602,0.281549 -0.2746,0.425855 -0.514673,0.663139 -0.467828,0.462396 -1.132102,0.799266 -1.937639,0.982628 l -0.236236,0.05377 -4.1341144,0.004 c -2.2737617,0.0021 -4.1608073,-0.0028 -4.1934331,-0.01114 z m 8.0473539,-2.643264 c -0.00841,-0.880271 -0.022013,-2.053286 -0.030258,-2.606699 l -0.014975,-1.006205 -0.5918067,-0.01521 -0.5918042,-0.01521 -0.6274514,0.320974 c -0.3450987,0.176538 -0.6305629,0.323913 -0.6343676,0.327506 -0.00794,0.0075 0.060904,0.862039 0.078065,0.96914 l 0.011351,0.07087 0.277667,-0.01198 0.2776643,-0.01199 0.2421414,-0.124052 0.2421414,-0.124056 v 1.913721 1.913721 h 0.6884537 0.6884564 z"
       style="fill:#000000;stroke-width:0.00580358;stroke-miterlimit:4;stroke-dasharray:none" />
  </g>
  <g
     style="display:inline"
     id="lay_40_1">
    <path
       id="path1092"
       d="m 38.711127,13.965143 c -0.185761,-0.02093 -0.360328,-0.08367 -0.465759,-0.167426 -0.119711,-0.0951 -0.291277,-0.309642 -0.407845,-0.510022 l -0.02228,-0.03832 V 12.32484 11.400303 l 0.139178,-0.214801 c 0.198313,-0.30606 0.35428,-0.538748 0.369634,-0.551464 0.09744,-0.08068 0.44641,-0.105089 0.675359,-0.04723 0.125651,0.03175 0.177697,0.061 0.265399,0.149167 0.09938,0.0999 0.17441,0.215493 0.284398,0.438161 0.122435,0.247867 0.159922,0.284022 0.285141,0.274997 0.132202,-0.0095 0.246549,-0.113223 0.29732,-0.269629 0.04693,-0.144592 0.08872,-0.507704 0.0889,-0.772575 5.8e-5,-0.08267 -0.0042,-0.121791 -0.0204,-0.187923 C 40.133318,9.9460477 39.941958,9.5277229 39.733263,9.1983061 39.565827,8.9340138 39.395208,8.7449346 39.206782,8.6148601 39.147565,8.573982 39.049847,8.4979937 38.989628,8.4459978 38.929406,8.3940045 38.847816,8.3236862 38.808311,8.2897375 38.584752,8.0976156 38.311691,7.9704013 37.912025,7.8721774 c -0.25205,-0.061944 -0.460201,-0.083886 -0.730639,-0.077018 -0.251524,0.00638 -0.446291,0.036166 -0.637643,0.097496 -0.0846,0.027114 -0.174763,0.081894 -0.526598,0.3199368 -0.576842,0.390279 -0.831268,0.614688 -1.076333,0.9493462 -0.226547,0.309372 -0.372795,0.6400641 -0.434242,0.9818976 -0.01728,0.09609 -0.01953,0.134509 -0.01961,0.334087 -7.2e-5,0.20193 0.0019,0.235339 0.01897,0.319516 0.03468,0.171101 0.08994,0.310973 0.169974,0.430244 0.06942,0.103444 0.215836,0.226587 0.277325,0.233236 0.02278,0.0024 0.02471,-2.65e-4 0.05077,-0.07261 0.115245,-0.319844 0.271365,-0.578297 0.407766,-0.675037 0.06752,-0.04788 0.137546,-0.08272 0.215476,-0.107193 0.08063,-0.02532 0.234225,-0.02707 0.342146,-0.0039 0.110702,0.02376 0.317712,0.09463 0.376201,0.128791 0.155482,0.09081 0.300453,0.309042 0.396507,0.596876 l 0.03835,0.114922 0.0074,0.311039 c 0.02305,0.974222 0.01886,1.351166 -0.01651,1.488697 -0.02567,0.09978 -0.07958,0.201358 -0.189492,0.356994 -0.05432,0.07691 -0.11379,0.163158 -0.132165,0.191659 -0.04103,0.06364 -0.07741,0.09334 -0.142266,0.116163 -0.148133,0.05211 -0.402051,0.03544 -0.659543,-0.04331 -0.175355,-0.05363 -0.26583,-0.114086 -0.341622,-0.22827 -0.04305,-0.06486 -0.08842,-0.177493 -0.08698,-0.215921 0.0019,-0.04595 -0.03417,-0.09632 -0.206696,-0.290065 -0.05114,-0.05742 -0.14093,-0.155141 -0.199543,-0.217157 -0.278109,-0.294235 -0.442465,-0.525126 -0.605512,-0.850619 -0.276357,-0.551694 -0.409588,-1.162251 -0.409448,-1.876365 10e-5,-0.5041098 0.04811,-0.7510534 0.213188,-1.0964934 0.154927,-0.3242072 0.363111,-0.6042766 0.681437,-0.9167363 0.336235,-0.3300359 0.73887,-0.6216358 1.134748,-0.8218117 0.245562,-0.1241716 0.392117,-0.1766358 0.548864,-0.1964848 0.329819,-0.041765 1.012286,-0.04172 1.468184,9.79e-5 0.376293,0.034517 0.52424,0.070358 0.752353,0.1822608 0.571984,0.280588 1.206225,0.8245396 1.545614,1.325581 0.317156,0.4682146 0.52841,1.0866041 0.61405,1.7974705 0.02479,0.205859 0.0271,0.586549 0.0044,0.732552 -0.06457,0.415848 -0.246345,0.806214 -0.73506,1.578562 -0.316899,0.500811 -0.569238,0.845071 -0.72576,0.990129 -0.07463,0.06916 -0.171397,0.139179 -0.223083,0.161415 -0.08806,0.03788 -0.246253,0.05647 -0.365885,0.043 z m -0.256955,-0.675876 c 0.04666,-0.02164 0.08212,-0.06205 0.114363,-0.130294 l 0.02763,-0.05847 0.0074,-0.81217 0.0074,-0.812173 -0.019,-0.05228 c -0.04856,-0.133583 -0.130897,-0.207071 -0.2315,-0.206608 -0.08572,2.65e-4 -0.167436,0.06569 -0.221842,0.177266 l -0.02988,0.06127 -0.0088,0.638598 c -0.0048,0.351229 -0.0094,0.712656 -0.01021,0.80317 l -0.0013,0.16457 0.02822,0.04656 c 0.0546,0.0901 0.131562,0.163341 0.19562,0.186174 0.03954,0.0141 0.10509,0.01151 0.141986,-0.0056 z m -2.15079,-0.0141 c 0.06099,-0.01812 0.128183,-0.08559 0.170447,-0.171172 l 0.03128,-0.06334 0.0016,-0.826169 0.0016,-0.82617 -0.0226,-0.04599 c -0.02774,-0.05649 -0.07984,-0.110384 -0.130323,-0.134824 -0.05791,-0.02804 -0.152445,-0.03125 -0.208613,-0.0071 -0.05195,0.02236 -0.09599,0.06872 -0.125947,0.132607 l -0.02201,0.04694 v 0.835216 0.835218 l 0.03219,0.06448 c 0.04091,0.08193 0.100312,0.14378 0.153943,0.160277 0.05151,0.01585 0.06527,0.01585 0.118612,5e-6 z"
       style="fill:#000000;stroke-width:0.00205187;stroke-miterlimit:4;stroke-dasharray:none" />
  </g>
  <g
     style="display:inline"
     id="lay_40_0">
    <path
       id="path980"
       d="m 1.7101808,41.533575 c -4.763e-4,-0.52052 0.072795,-6.939876 0.079286,-6.947125 0.00254,-0.0028 1.8086887,-0.02331 4.0136619,-0.0455 l 4.0090434,-0.04034 0.3507899,0.09208 c 1.748819,0.459028 2.897121,1.479944 3.192859,2.838662 0.120563,0.553907 0.06129,1.424911 -0.138578,2.036431 -0.290558,0.88899 -0.949965,1.637017 -1.834862,2.081456 -0.256376,0.128765 -0.715983,0.290804 -0.952148,0.33569 -0.118038,0.02244 -1.7100096,0.04225 -4.4517094,0.05542 l -4.2679593,0.0205 z m 8.1437529,-0.699172 0.9103863,-0.01969 -0.0028,-0.138187 c -0.0016,-0.076 -0.02029,-0.333626 -0.04176,-0.5725 l -0.03901,-0.434311 -0.584653,0.0096 c -0.3215585,0.0053 -0.6748566,0.01841 -0.7851058,0.02923 l -0.200451,0.01968 0.4677225,-0.480644 c 0.5469623,-0.562079 0.8927203,-0.983242 1.0913243,-1.329323 0.115266,-0.200863 0.144777,-0.286752 0.154964,-0.451019 0.02916,-0.470352 -0.213366,-1.041138 -0.595601,-1.40172 -0.3929012,-0.370642 -0.8110328,-0.52038 -1.4555049,-0.52124 -0.66793,-7.94e-4 -1.1761099,0.193069 -1.5922571,0.607722 -0.1240288,0.123584 -0.2255097,0.240157 -0.2255097,0.25905 0,0.03888 0.6602015,0.914728 0.7010029,0.929976 0.014526,0.0054 0.1242378,-0.0585 0.2437845,-0.142065 0.3182117,-0.222448 0.6395905,-0.363286 0.8664178,-0.379693 0.182237,-0.01318 0.1979162,-0.008 0.3066256,0.100674 0.1561491,0.156149 0.2052876,0.34762 0.1549162,0.60365 -0.076398,0.388323 -0.098129,0.415578 -1.1943345,1.497861 L 6.99886,40.04355 7.025054,40.457993 c 0.01442,0.227944 0.02726,0.418481 0.028546,0.423413 0.00238,0.0088 0.9745292,-0.0075 2.8003156,-0.04701 z"
       style="fill:#000000;stroke-width:0.00820748;stroke-miterlimit:4;stroke-dasharray:none" />
  </g>
  <g
     id="lay_39_1">
    <path
       id="path1120"
       d="m 43.23115,10.130944 -0.489648,-0.0016"
       style="fill:none;stroke:#000000;stroke-width:0.264583px;stroke-linecap:butt;stroke-linejoin:miter;stroke-opacity:1" />
    <path
       id="path1122"
       d="m 43.530394,8.9027801 -0.77339,-0.618242"
       style="fill:none;stroke:#000000;stroke-width:0.264583px;stroke-linecap:butt;stroke-linejoin:miter;stroke-opacity:1" />
    <path
       id="path1124"
       d="M 44.504611,7.9659241 44.183513,7.1264521"
       style="fill:none;stroke:#000000;stroke-width:0.264583px;stroke-linecap:butt;stroke-linejoin:miter;stroke-opacity:1" />
    <path
       id="path1126"
       d="m 46.078985,7.5378291 0.0084,-0.71483"
       style="fill:none;stroke:#000000;stroke-width:0.264583px;stroke-linecap:butt;stroke-linejoin:miter;stroke-opacity:1" />
    <path
       id="path1128"
       d="m 47.472694,7.8863351 0.346689,-0.633434"
       style="fill:none;stroke:#000000;stroke-width:0.264583px;stroke-linecap:butt;stroke-linejoin:miter;stroke-opacity:1" />
    <path
       id="path1130"
       d="m 48.434306,8.8803541 0.592669,-0.442585"
       style="fill:none;stroke:#000000;stroke-width:0.264583px;stroke-linecap:butt;stroke-linejoin:miter;stroke-opacity:1" />
    <path
       id="path1132"
       d="m 48.709184,10.15818 0.788167,5e-6"
       style="fill:none;stroke:#000000;stroke-width:0.264583px;stroke-linecap:butt;stroke-linejoin:miter;stroke-opacity:1" />
    <path
       id="path1134"
       d="m 45.530917,12.818986 c 0,-0.09324 -0.0061,-2.151417 -0.0061,-2.151417 l 0.275426,-0.266729 0.138522,0.315857 0.295746,-0.345102 0.33237,0.345485 -0.03877,0.742617 -0.22493,0.194509 0.01804,1.187328"
       style="fill:none;stroke:#000000;stroke-width:0.264583px;stroke-linecap:butt;stroke-linejoin:miter;stroke-opacity:1" />
    <path
       id="path1136"
       d="m 45.790549,14.790936 c -0.21586,-0.03291 -0.506203,-0.15032 -0.745643,-0.301543 -0.08981,-0.05672 -0.1049,-0.07363 -0.113665,-0.127405 -0.01704,-0.104542 -0.159658,-1.191289 -0.159658,-1.216625 0,-0.01307 -0.03094,-0.05735 -0.06876,-0.09838 l -0.06876,-0.0746 0.02524,-0.358347 0.02524,-0.358343 -0.188222,-0.191924 C 43.961651,11.518591 43.6054,10.928517 43.51124,10.432151 43.40401,9.8668685 43.645048,9.2064499 44.15331,8.6729521 44.5368,8.2704203 45.029097,8.0001299 45.57793,7.8907749 c 0.151908,-0.030266 0.241522,-0.037171 0.471527,-0.036335 0.262155,0.00106 0.299167,0.00503 0.481732,0.052869 0.227301,0.059576 0.509969,0.1895871 0.68757,0.3162432 0.510035,0.3637306 0.893578,0.9721823 1.046864,1.6607446 0.03126,0.1404323 0.03851,0.2228323 0.03869,0.4400553 2.06e-4,0.241752 -0.0042,0.283217 -0.04634,0.434313 -0.126844,0.455057 -0.45942,0.959853 -0.940959,1.428221 l -0.197503,0.192101 -0.05288,0.992401 -0.05288,0.992402 -0.03949,0.03191 c -0.09596,0.07754 -0.325649,0.220361 -0.437521,0.27205 -0.248255,0.114699 -0.514043,0.158578 -0.746214,0.123187 z m 0.484838,-1.302551 c 0.155441,-0.05103 0.278157,-0.117084 0.4298,-0.231349 0.157284,-0.118521 0.135546,-0.03204 0.189132,-0.75237 l 0.03539,-0.475675 0.09544,-0.108977 C 47.33898,11.561705 47.59892,11.124661 47.727928,10.738419 47.921103,10.160074 47.87215,9.6907909 47.571567,9.2394726 47.275115,8.7943535 46.758923,8.455753 46.220721,8.3533751 c -0.162584,-0.030927 -0.520772,-0.035436 -0.689089,-0.00868 -0.666528,0.1059789 -1.14454,0.4529985 -1.378648,1.0008553 -0.121836,0.2851123 -0.171882,0.5561965 -0.171448,0.9286816 7.94e-4,0.688644 0.267169,1.192326 0.811184,1.533869 0.07993,0.05018 0.181869,0.104381 0.226528,0.120441 l 0.0812,0.0292 0.01093,0.411072 c 0.006,0.22609 0.01117,0.493758 0.01146,0.594821 l 5.29e-4,0.183748 0.112268,0.08856 c 0.140147,0.110554 0.411699,0.24719 0.554932,0.279226 0.138954,0.03108 0.342894,0.01982 0.484835,-0.02679 z"
       style="fill:#000000;stroke-width:0.00410374;stroke-miterlimit:4;stroke-dasharray:none" />
  </g>
  <g
     style="display:inline"
     id="lay_39_0">
    <path
       id="path987"
       d="m 5.5030275,50.080648 -3.6958359,-0.0043 -3.704e-4,-0.304816 c -2.056e-4,-0.16765 -0.011314,-1.571424 -0.024683,-3.119501 -0.013369,-1.548074 -0.024477,-3.079654 -0.024683,-3.40351 l -3.704e-4,-0.588827 h 3.9405649 c 3.8536536,0 3.9448396,7.94e-4 4.1344162,0.03314 0.9457271,0.161678 1.8427171,0.588322 2.4511871,1.165875 0.598011,0.567627 0.940443,1.255798 1.069935,2.150203 0.03402,0.23499 0.02875,0.987798 -0.0086,1.225428 -0.114914,0.731467 -0.376933,1.292543 -0.81697,1.749404 -0.290862,0.301982 -0.526537,0.472252 -0.923345,0.667091 -0.636736,0.312651 -1.275803,0.447813 -2.0713386,0.438095 -0.1837479,-0.0021 -1.9972126,-0.006 -4.0299243,-0.0083 z m 3.7793586,-0.864164 c 0.3083454,-0.05052 0.5823241,-0.155167 0.8122099,-0.310216 0.425286,-0.286837 0.688652,-0.784542 0.711092,-1.3438 0.0066,-0.16564 0.0024,-0.24411 -0.01807,-0.330761 -0.0867,-0.367554 -0.367496,-0.661876 -0.7991877,-0.837673 l -0.1291854,-0.05261 0.1067355,-0.07018 c 0.1254736,-0.08249 0.2952116,-0.261046 0.3758646,-0.395377 0.13408,-0.223319 0.195141,-0.49684 0.180051,-0.806535 -0.0113,-0.231907 -0.03983,-0.347705 -0.131934,-0.535559 C 10.307493,44.36559 10.129042,44.167647 9.9564253,44.052892 9.277269,43.601391 8.0219931,43.656303 7.2797072,44.169989 l -0.098396,0.06809 0.00987,0.200562 c 0.016986,0.344861 0.1020762,0.583819 0.2607019,0.732197 0.082407,0.07708 0.1726512,0.128188 0.226359,0.128188 0.014076,0 0.095128,-0.04795 0.1801071,-0.106547 0.2289731,-0.157898 0.3171984,-0.197993 0.4551865,-0.20687 0.1373505,-0.0088 0.3679984,0.03957 0.5046028,0.105902 0.1971463,0.09573 0.2866152,0.328329 0.2113015,0.54936 -0.071564,0.210031 -0.3293374,0.33357 -0.7928768,0.379992 l -0.1939052,0.01942 -0.010636,0.18479 c -0.00585,0.101635 -0.010689,0.278755 -0.010716,0.393597 l -6.62e-5,0.208804 0.2129632,0.0026 c 0.5821494,0.007 0.9993259,0.177138 1.1407298,0.46515 0.05475,0.111525 0.05515,0.276022 0.00106,0.414013 -0.075078,0.19133 -0.2720129,0.35175 -0.4890479,0.398372 -0.2572332,0.05526 -0.8309398,-0.0382 -1.3650727,-0.222366 -0.1046983,-0.0361 -0.1958552,-0.05959 -0.2025703,-0.05221 -0.00672,0.0074 -0.062442,0.212629 -0.1238356,0.456096 -0.061391,0.243465 -0.1150408,0.454555 -0.1192186,0.469088 -0.00569,0.01982 0.041511,0.04991 0.1889125,0.120401 0.3292819,0.157478 0.7409735,0.281858 1.1152478,0.336942 0.2111031,0.03107 0.7149783,0.0316 0.902036,0.0011 z"
       style="fill:#000000;stroke-width:0.00410374;stroke-miterlimit:4;stroke-dasharray:none" />
  </g>
  <g
     id="lay_38_0">
    <path
       id="path1139"
       d="m 51.863851,11.740666 c 0,0 -0.560417,-0.173241 -0.632791,-0.822127 -0.07237,-0.648882 0.563534,-0.708752 0.563534,-0.708752 l 2.57538,0.0021 -0.07164,-2.4571059 c 0,0 0.119546,-0.544627 0.600921,-0.578261 0.481373,-0.03363 0.834121,0.487995 0.834121,0.487995 l 0.04049,2.5658549 2.613303,-0.03716 c 0,0 0.453519,0.314182 0.413324,0.769321 -0.04019,0.455142 -0.441172,0.650624 -0.441172,0.650624 l -2.573964,0.05901 -0.05007,2.569903 c 0,0 -0.233902,0.448292 -0.664906,0.463693 -0.431003,0.0154 -0.818147,-0.454954 -0.818147,-0.454954 l 0.08552,-2.526479 z"
       style="fill:#000000;stroke:#000000;stroke-width:0.065;stroke-linecap:butt;stroke-linejoin:miter;stroke-miterlimit:4;stroke-dasharray:none;stroke-opacity:1" />
  </g>
  <g
     style="display:inline"
     id="lay_38_1">
    <path
       id="path1036"
       d="M 5.973163,58.45606 C 3.8812997,58.4441 2.1649635,58.42965 2.1590813,58.42392 2.1482523,58.41339 1.8304834,51.464675 1.8283773,51.192329 l -0.00114,-0.147648 1.8131046,0.0029 c 0.9972074,0.0016 2.8176942,0.0105 4.0455275,0.01987 l 2.2324219,0.01701 0.2693327,0.06486 c 1.356437,0.32666 2.388656,1.103728 2.905853,2.187564 0.254743,0.53384 0.377031,1.051391 0.396848,1.679544 0.01048,0.331697 0.0048,0.465952 -0.02766,0.660331 -0.158422,0.947433 -0.702403,1.67295 -1.659919,2.213872 -0.567685,0.320696 -1.45487,0.601956 -1.865374,0.59137 -0.088453,-0.0024 -1.8723451,-0.01392 -3.964207,-0.02588 z m 4.499771,-1.251551 c -2.64e-4,-0.05522 -0.01593,-0.291748 -0.03477,-0.525621 -0.01884,-0.233873 -0.03456,-0.43229 -0.03493,-0.440926 -2.64e-4,-0.0086 0.08172,-0.02228 0.182412,-0.03029 0.100695,-0.008 0.254839,-0.02064 0.34254,-0.02804 l 0.159459,-0.01344 v -0.598853 -0.59885 l -0.206705,0.01127 c -0.113689,0.0062 -0.262517,0.01556 -0.33073,0.02077 l -0.124023,0.0095 v -1.342075 -1.342075 l -0.8868833,-0.01752 c -0.4877885,-0.0096 -0.8898017,-0.01352 -0.8933656,-0.0087 -0.00357,0.0049 -0.3980947,0.63955 -0.8767339,1.410422 l -0.8702516,1.401585 0.01569,0.451101 c 0.00863,0.248108 0.019368,0.454795 0.023892,0.459309 0.00452,0.0045 0.4871561,0.015 1.0725387,0.02328 l 1.0643341,0.01508 0.013414,0.179273 c 0.00738,0.0986 0.020188,0.373081 0.028445,0.609958 l 0.015028,0.430683 0.5229225,0.0068 c 0.2876073,0.0038 0.5893641,0.0093 0.6705701,0.01225 l 0.147646,0.0054 -5.29e-4,-0.100402 z"
       style="fill:#000000;stroke-width:0.00580358;stroke-miterlimit:4;stroke-dasharray:none" />
    <path
       id="path1038"
       d="m 8.4445697,54.96419 c 0.02032,-0.03139 0.1941592,-0.304621 0.3863182,-0.60719 0.1921589,-0.302567 0.3528086,-0.546695 0.3569969,-0.542504 0.00418,0.0042 0.00106,0.270346 -0.00677,0.591462 l -0.014393,0.583848 h -0.193511 c -0.1064313,0 -0.2772225,0.0071 -0.3795342,0.01572 l -0.1860206,0.01572 z"
       style="fill:#000000;stroke-width:0.00580358;stroke-miterlimit:4;stroke-dasharray:none" />
  </g>
  <g
     style="display:inline"
     id="lay_37_0">
    <path
       id="path1142"
       d="m 80.998803,9.7016181 c 0,0 -0.0947,-0.399839 -0.87208,-0.404104 -0.77742,-0.0043 -0.78264,0.334095 -0.78863,0.539541 -0.006,0.2054459 1.81484,0.9095239 1.82031,1.2977129 0.005,0.388186 -0.13532,0.680156 -0.99817,0.690869 -0.86285,0.01072 -0.8455,-0.587367 -0.8455,-0.587367"
       style="fill:none;stroke:#000000;stroke-width:0.365;stroke-linecap:butt;stroke-linejoin:miter;stroke-miterlimit:4;stroke-dasharray:none;stroke-opacity:1" />
    <path
       id="path1144"
       d="m 80.246593,8.9613321 -0.0227,3.4465209"
       style="fill:none;stroke:#000000;stroke-width:0.365;stroke-linecap:butt;stroke-linejoin:miter;stroke-miterlimit:4;stroke-dasharray:none;stroke-opacity:1" />
    <path
       id="path1146"
       d="m 75.79101,11.177527 c 0,0 -0.12384,2.977282 4.258923,3.099779 4.38277,0.122494 4.51674,-2.934105 4.51674,-2.934105 0,0 0.24904,-3.4116559 -4.38295,-3.4191709 -4.631999,-0.0075 -4.392713,3.2534969 -4.392713,3.2534969 z"
       style="fill:none;stroke:#000000;stroke-width:0.264583px;stroke-linecap:butt;stroke-linejoin:miter;stroke-opacity:1" />
    <path
       id="path1148"
       d="m 75.781975,10.704394 c 0,0 3.827718,5.175207 8.817268,0.101422"
       style="fill:none;stroke:#000000;stroke-width:0.264583px;stroke-linecap:butt;stroke-linejoin:miter;stroke-opacity:1" />
    <path
       id="path1150"
       d="m 80.221913,13.084903 -0.042,1.166974"
       style="fill:none;stroke:#000000;stroke-width:0.264583px;stroke-linecap:butt;stroke-linejoin:miter;stroke-opacity:1" />
    <path
       id="path1152"
       d="m 81.230163,12.886992 0.0221,1.371169"
       style="fill:none;stroke:#000000;stroke-width:0.264583px;stroke-linecap:butt;stroke-linejoin:miter;stroke-opacity:1" />
    <path
       id="path1154"
       d="m 82.088563,12.627428 0.0186,1.415767"
       style="fill:none;stroke:#000000;stroke-width:0.264583px;stroke-linecap:butt;stroke-linejoin:miter;stroke-opacity:1" />
    <path
       id="path1156"
       d="m 82.881773,12.223089 0.007,1.532847"
       style="fill:none;stroke:#000000;stroke-width:0.264583px;stroke-linecap:butt;stroke-linejoin:miter;stroke-opacity:1" />
    <path
       id="path1158"
       d="m 83.649223,11.714867 0.0148,1.577411"
       style="fill:none;stroke:#000000;stroke-width:0.264583px;stroke-linecap:butt;stroke-linejoin:miter;stroke-opacity:1" />
    <path
       id="path1160"
       d="m 84.143773,11.336713 0.0423,1.146403"
       style="fill:none;stroke:#000000;stroke-width:0.264583px;stroke-linecap:butt;stroke-linejoin:miter;stroke-opacity:1" />
    <path
       id="path1162"
       d="m 79.190883,12.971447 -0.0527,1.218657"
       style="fill:none;stroke:#000000;stroke-width:0.264583px;stroke-linecap:butt;stroke-linejoin:miter;stroke-opacity:1" />
    <path
       id="path1164"
       d="m 78.344832,12.692856 -0.0021,1.338901"
       style="fill:none;stroke:#000000;stroke-width:0.264583px;stroke-linecap:butt;stroke-linejoin:miter;stroke-opacity:1" />
    <path
       id="path1166"
       d="m 77.365482,12.119179 -0.01008,1.479608"
       style="fill:none;stroke:#000000;stroke-width:0.264583px;stroke-linecap:butt;stroke-linejoin:miter;stroke-opacity:1" />
    <path
       id="path1168"
       d="m 76.832593,11.715533 -0.08042,1.471375"
       style="fill:none;stroke:#000000;stroke-width:0.264583px;stroke-linecap:butt;stroke-linejoin:miter;stroke-opacity:1" />
    <path
       id="path1170"
       d="m 76.278024,11.289766 -0.03676,1.257535"
       style="fill:none;stroke:#000000;stroke-width:0.264583px;stroke-linecap:butt;stroke-linejoin:miter;stroke-opacity:1" />
  </g>
  <g
     style="display:inline"
     id="lay_37_1">
    <path
       id="path1041"
       d="m 2.0778985,59.214826 6.931742,0.04765 c 0,0 4.3587145,0.379195 4.4742525,4.325265 0.115541,3.94607 -4.2472745,3.881784 -4.2472745,3.881784 l -6.693722,-0.04928 z"
       style="fill:none;stroke:#000000;stroke-width:0.365;stroke-linecap:butt;stroke-linejoin:miter;stroke-miterlimit:4;stroke-dasharray:none;stroke-opacity:1" />
    <path
       id="path1047"
       d="m 6.1792549,64.946575 -0.2185167,-0.0078 V 63.30129 61.663807 l 0.1807395,-0.01527 c 0.099407,-0.0084 0.3217148,-0.01527 0.4940167,-0.01527 h 0.3132773 l 0.012912,0.08859 c 0.00709,0.04872 0.01995,0.798179 0.028541,1.665457 l 0.015637,1.576869 -0.3040406,-0.0049 c -0.1672246,-0.0027 -0.4023757,-0.0084 -0.52256,-0.0127 z"
       style="fill:#000000;stroke-width:0.00580358;stroke-miterlimit:4;stroke-dasharray:none" />
    <path
       id="path1049"
       d="m 7.5784509,63.221941 c 0.00955,-0.789321 0.018891,-1.435388 0.020743,-1.435706 0.00185,-2.64e-4 0.2213081,0.0034 0.4876642,0.0083 l 0.4842827,0.0088 0.2877,0.700458 c 0.158234,0.385252 0.2964312,0.695989 0.3071045,0.690526 0.010663,-0.0055 0.1410652,-0.327039 0.2897584,-0.714611 L 9.7260576,61.77503 h 0.4915064 0.491503 v 1.082927 c 0,0.595608 0.007,1.245306 0.01561,1.443773 l 0.01561,0.360849 -0.11602,-0.01376 c -0.06381,-0.0076 -0.215765,-0.02066 -0.337674,-0.02912 l -0.22166,-0.01537 0.01741,-0.862412 c 0.0097,-0.481192 0.0084,-0.856853 -0.0029,-0.849839 -0.01119,0.0069 -0.2647659,0.390512 -0.5635096,0.85244 -0.2987463,0.461928 -0.5488728,0.840282 -0.5558419,0.840785 -0.00696,5.29e-4 -0.1736434,-0.379127 -0.3703876,-0.843627 -0.2838767,-0.6702 -0.3666013,-0.844539 -0.4007432,-0.844539 -0.040733,0 -0.043352,0.04682 -0.049215,0.879975 l -0.00619,0.879978 H 7.847302 7.5610863 Z"
       style="fill:#000000;stroke-width:0.00580358;stroke-miterlimit:4;stroke-dasharray:none" />
  </g>
  <g
     id="lay_36_1">
    <path
       id="path1196"
       d="m 18.317963,70.794676 c 0,0 -2.001951,2.845982 -2.086219,4.946107 -0.08427,2.100126 0.534054,3.130666 0.534054,3.130666 l 4.363275,0.28248 c 0,0 -0.535924,-0.42702 -0.362894,-3.564659 0.173029,-3.137636 1.542891,-4.667364 1.542891,-4.667364 z"
       style="fill:#000000;stroke:#000000;stroke-width:0.065;stroke-linecap:butt;stroke-linejoin:miter;stroke-miterlimit:4;stroke-dasharray:none;stroke-opacity:1" />
  </g>
  <g
     id="lay_36_0">
    <path
       id="path1113"
       d="m 21.039737,19.390098 7.254941,7.246864 10.727124,0.0011 3.211192,-8.947983 -16.960583,-0.02768 c 0,0 -1.502976,-0.106508 -2.630326,0.602469 -1.127352,0.708975 -1.602348,1.125178 -1.602348,1.125178 z"
       style="fill:#000000;stroke:#000000;stroke-width:0.065;stroke-linecap:butt;stroke-linejoin:miter;stroke-miterlimit:4;stroke-dasharray:none;stroke-opacity:1" />
  </g>
  <g
     id="lay_35_1">
    <path
       id="path1199"
       d="m 21.719523,79.164999 c 0,0 -0.624337,-1.816914 -0.26738,-3.699568 0.356957,-1.882655 1.549593,-4.498289 1.549593,-4.498289 l 4.010713,0.188338 c 0,0 -1.527546,2.857558 -1.527802,4.920319 -2.54e-4,2.06276 0.42549,3.35143 0.42549,3.35143 z"
       style="fill:#000000;stroke:#000000;stroke-width:0.065;stroke-linecap:butt;stroke-linejoin:miter;stroke-miterlimit:4;stroke-dasharray:none;stroke-opacity:1" />
  </g>
  <g
     style="display:inline"
     id="lay_35_0">
    <path
       id="path1095"
       d="m 20.632506,19.738412 c 0,0 -0.710578,0.446979 -1.287873,1.538766 -0.577297,1.091787 -0.563374,1.823728 -0.563374,1.823728 l -0.04181,13.558062 c 0,0 0.103979,1.816558 1.327695,3.101848 1.223714,1.28529 3.101713,2.042893 3.101713,2.042893 l 4.633566,-4.390546 -0.0311,-10.437381 z"
       style="fill:#000000;stroke:#000000;stroke-width:0.065;stroke-linecap:butt;stroke-linejoin:miter;stroke-miterlimit:4;stroke-dasharray:none;stroke-opacity:1" />
  </g>
  <g
     id="lay_34_1">
    <path
       id="path1202"
       d="m 26.50102,79.345939 c 0,0 -0.646549,-2.510739 -0.299527,-4.294215 0.34702,-1.78348 1.532647,-3.829868 1.532647,-3.829868 l 3.928787,0.165325 c 0,0 -1.130554,2.442935 -1.145183,4.973219 -0.01463,2.530289 0.282012,3.256399 0.282012,3.256399 z"
       style="fill:#000000;stroke:#000000;stroke-width:0.065;stroke-linecap:butt;stroke-linejoin:miter;stroke-miterlimit:4;stroke-dasharray:none;stroke-opacity:1" />
  </g>
  <g
     id="lay_34_0">
    <path
       id="path1107"
       d="m 23.701871,42.240102 4.615484,-4.40517 10.893208,0.119111 4.377256,4.401618 -4.619164,4.275807 -10.737178,-0.02714 z"
       style="fill:#000000;stroke:#000000;stroke-width:0.065;stroke-linecap:butt;stroke-linejoin:miter;stroke-miterlimit:4;stroke-dasharray:none;stroke-opacity:1" />
  </g>
  <g
     id="lay_33_1">
    <path
       id="path1205"
       d="m 31.514001,79.623919 c 0,0 -0.711121,-2.445813 -0.286999,-4.411503 0.424122,-1.965693 1.077992,-3.786958 1.077992,-3.786958 l 4.015883,0.235146 c 0,0 -1.180526,2.884652 -1.168818,4.921173 0.01172,2.036522 0.35238,3.177622 0.35238,3.177622 z"
       style="fill:#000000;stroke:#000000;stroke-width:0.065;stroke-linecap:butt;stroke-linejoin:miter;stroke-miterlimit:4;stroke-dasharray:none;stroke-opacity:1" />
  </g>
  <g
     style="display:inline"
     id="lay_33_0">
    <path
       id="path1098"
       d="m 23.192966,42.651598 c 0,0 -2.120024,0.635542 -3.034884,1.899422 -0.914858,1.263883 -1.416034,3.155286 -1.416034,3.155286 l -0.09963,12.598456 c 0,0 -0.05659,1.517446 0.778854,2.798587 0.83544,1.281145 1.158282,1.521884 1.158282,1.521884 l 7.285771,-7.103729 0.0033,-10.404504 z"
       style="fill:#000000;stroke:#000000;stroke-width:0.065;stroke-linecap:butt;stroke-linejoin:miter;stroke-miterlimit:4;stroke-dasharray:none;stroke-opacity:1" />
  </g>
  <g
     id="lay_32_1">
    <path
       id="path1208"
       d="m 36.200544,79.765229 c 0,0 -0.636743,-1.96333 -0.256802,-4.550048 0.379945,-2.586715 1.056926,-3.566245 1.056926,-3.566245 l 3.945853,0.0794 c 0,0 -1.174618,2.51464 -1.177952,4.533255 -0.0033,2.018618 0.291582,3.590698 0.291582,3.590698 z"
       style="fill:#000000;stroke:#000000;stroke-width:0.065;stroke-linecap:butt;stroke-linejoin:miter;stroke-miterlimit:4;stroke-dasharray:none;stroke-opacity:1" />
  </g>
  <g
     id="lay_32_0">
    <path
       id="path1101"
       d="m 28.272244,57.934529 -7.331326,7.177593 c 0,0 0.420544,0.610367 1.710166,1.173501 1.289619,0.563134 1.77062,0.516451 1.77062,0.516451 l 17.610995,0.02368 -3.088105,-8.889336 z"
       style="fill:#000000;stroke:#000000;stroke-width:0.065;stroke-linecap:butt;stroke-linejoin:miter;stroke-miterlimit:4;stroke-dasharray:none;stroke-opacity:1" />
  </g>
  <g
     id="lay_31_1">
    <path
       id="path1211"
       d="m 40.774735,79.876809 c 0,0 -0.58824,-1.99726 -0.355621,-4.605989 0.232619,-2.608736 1.188476,-3.514072 1.188476,-3.514072 l 4.069985,0.109993 c 0,0 -1.190884,2.119762 -1.144855,4.873249 0.04603,2.753489 0.575866,3.439949 0.575866,3.439949 z"
       style="fill:#000000;stroke:#000000;stroke-width:0.065;stroke-linecap:butt;stroke-linejoin:miter;stroke-miterlimit:4;stroke-dasharray:none;stroke-opacity:1" />
  </g>
  <g
     id="lay_31_0">
    <path
       id="path1104"
       d="m 42.793405,66.863192 c 0,0 1.94664,-0.222117 4.023156,-1.952389 2.076514,-1.730275 1.682637,-4.295738 1.682637,-4.295738 l 0.07931,-12.013102 c 0,0 0.04594,-1.247883 -1.255024,-3.148751 -1.300961,-1.900867 -3.103991,-2.778429 -3.103991,-2.778429 l -4.742174,4.368046 -0.01415,10.570549 z"
       style="fill:#000000;stroke:#000000;stroke-width:0.065;stroke-linecap:butt;stroke-linejoin:miter;stroke-miterlimit:4;stroke-dasharray:none;stroke-opacity:1" />
  </g>
  <g
     id="lay_30_1">
    <path
       id="path1214"
       d="m 45.765036,80.110519 c 0,-0.19746 -0.876022,-2.15974 -0.442701,-4.368921 0.433324,-2.209175 0.993836,-3.773683 0.993836,-3.773683 l 4.065069,0.01685 c 0,0 -1.057942,1.39859 -1.061792,4.467947 -0.0038,3.069357 0.483293,3.935127 0.483293,3.935127 z"
       style="fill:#000000;stroke:#000000;stroke-width:0.065;stroke-linecap:butt;stroke-linejoin:miter;stroke-miterlimit:4;stroke-dasharray:none;stroke-opacity:1" />
  </g>
  <g
     id="lay_30_0">
    <path
       id="path1110"
       d="m 39.566153,37.374293 4.609348,4.636264 c 0,0 1.638858,-1.000527 2.75934,-2.380104 1.120481,-1.379577 1.569288,-2.885085 1.569288,-2.885085 l 0.03987,-13.431488 c 0,0 0.357222,-1.231842 -1.274643,-3.073731 -1.631866,-1.841892 -4.401704,-2.578878 -4.401704,-2.578878 l -3.38533,9.309521 z"
       style="fill:#000000;stroke:#000000;stroke-width:0.065;stroke-linecap:butt;stroke-linejoin:miter;stroke-miterlimit:4;stroke-dasharray:none;stroke-opacity:1" />
  </g>
  <g
     id="lay_29_1">
    <path
       id="path1217"
       d="m 50.358425,80.138269 c 0,0 -0.617818,-2.15107 -0.423527,-3.981301 0.194292,-1.830226 1.106961,-4.104651 1.106961,-4.104651 l 3.818335,-0.0047 c 0,0 -0.865992,2.7675 -0.788057,4.830522 0.07794,2.06302 0.405279,3.57641 0.405279,3.57641 z"
       style="fill:#000000;stroke:#000000;stroke-width:0.065;stroke-linecap:butt;stroke-linejoin:miter;stroke-miterlimit:4;stroke-dasharray:none;stroke-opacity:1" />
  </g>
  <g
     id="lay_29_0">
    <path
       id="path1173"
       d="m 52.399439,19.801462 c 0,0 -0.630558,0.544176 -1.07406,1.432488 -0.4435,0.888312 -0.650457,1.676789 -0.650457,1.676789 l 7.94e-4,14.095468 c 0,0 0.277386,1.616694 1.43901,2.886321 1.161627,1.269627 2.940936,1.950712 2.940936,1.950712 l 4.61104,-4.455692 0.08641,-10.452568 z"
       style="fill:#000000;stroke:#000000;stroke-width:0.065;stroke-linecap:butt;stroke-linejoin:miter;stroke-miterlimit:4;stroke-dasharray:none;stroke-opacity:1" />
  </g>
  <g
     id="lay_28_1">
    <path
       id="path1220"
       d="m 54.977298,80.368349 c 0,0 -0.450686,-1.57756 -0.273529,-3.718127 0.17716,-2.140566 0.856472,-4.478581 0.856472,-4.478581 l 4.010803,0.06543 c 0,0 -0.863811,2.104715 -0.777388,4.759026 0.08642,2.654312 0.364892,3.628442 0.364892,3.628442 z"
       style="fill:#000000;stroke:#000000;stroke-width:0.065;stroke-linecap:butt;stroke-linejoin:miter;stroke-miterlimit:4;stroke-dasharray:none;stroke-opacity:1" />
  </g>
  <g
     id="lay_28_0">
    <path
       id="path1176"
       d="m 55.678264,42.293423 4.492744,-4.439202 10.80612,0.0495 4.500875,4.338106 -4.464463,4.353718 -10.807149,-0.04624 z"
       style="fill:#000000;stroke:#000000;stroke-width:0.065;stroke-linecap:butt;stroke-linejoin:miter;stroke-miterlimit:4;stroke-dasharray:none;stroke-opacity:1" />
  </g>
  <g
     id="lay_27_1">
    <path
       id="path1223"
       d="m 59.77339,80.478609 c 0,0 -0.514877,-2.39196 -0.277188,-4.330021 0.237688,-1.938065 0.818099,-3.85191 0.818099,-3.85191 l 4.063781,-0.03529 c 0,0 -0.808834,2.069676 -0.770189,4.447537 0.03865,2.377864 0.326501,3.939364 0.326501,3.939364 z"
       style="fill:#000000;stroke:#000000;stroke-width:0.065;stroke-linecap:butt;stroke-linejoin:miter;stroke-miterlimit:4;stroke-dasharray:none;stroke-opacity:1" />
  </g>
  <g
     id="lay_27_0">
    <path
       id="path1179"
       d="m 55.023113,42.614763 c 0,0 -1.529331,0.528822 -2.594506,1.669261 -1.065178,1.140436 -1.678012,3.118435 -1.678012,3.118435 l -0.154072,13.701244 c 0,0 0.08537,1.037251 0.572596,1.926196 0.487222,0.888941 1.14056,1.586756 1.14056,1.586756 l 7.352284,-7.157281 0.02643,-10.464038 z"
       style="fill:#000000;stroke:#000000;stroke-width:0.065;stroke-linecap:butt;stroke-linejoin:miter;stroke-miterlimit:4;stroke-dasharray:none;stroke-opacity:1" />
  </g>
  <g
     id="lay_26_1">
    <path
       id="path1226"
       d="m 64.553437,80.646969 c 0,0 -0.325504,-1.41894 -0.253955,-4.397233 0.07155,-2.97829 0.665554,-4.070567 0.665554,-4.070567 l 3.9731,0.03022 c 0,0 -0.558822,2.37776 -0.52631,4.744402 0.03252,2.366648 0.240586,3.697088 0.240586,3.697088 z"
       style="fill:#000000;stroke:#000000;stroke-width:0.065;stroke-linecap:butt;stroke-linejoin:miter;stroke-miterlimit:4;stroke-dasharray:none;stroke-opacity:1" />
  </g>
  <g
     style="display:inline"
     id="lay_26_0">
    <path
       id="path1182"
       d="m 60.08971,57.957048 -7.323315,7.186316 c 0,0 1.501587,1.16858 2.374678,1.387496 0.87309,0.218913 1.281993,0.310279 1.281993,0.310279 l 17.448059,-0.02548 -2.973901,-8.820121 z"
       style="fill:#000000;stroke:#000000;stroke-width:0.065;stroke-linecap:butt;stroke-linejoin:miter;stroke-miterlimit:4;stroke-dasharray:none;stroke-opacity:1" />
  </g>
  <g
     id="lay_25_1">
    <path
       id="path1229"
       d="m 69.298231,80.657369 c 0,0 -0.440788,-1.69232 -0.291367,-4.169506 0.149423,-2.47719 0.538562,-4.213693 0.538562,-4.213693 l 4.067437,-0.04458 c 0,0 -0.56501,2.510788 -0.495541,4.80123 0.06947,2.290449 0.299455,3.639749 0.299455,3.639749 z"
       style="fill:#000000;stroke:#000000;stroke-width:0.065;stroke-linecap:butt;stroke-linejoin:miter;stroke-miterlimit:4;stroke-dasharray:none;stroke-opacity:1" />
  </g>
  <g
     id="lay_25_0">
    <path
       id="path1185"
       d="m 74.641856,66.863102 c 0,0 2.7476,-0.477358 4.060297,-1.930019 1.31269,-1.452657 1.85219,-3.854206 1.85219,-3.854206 l -0.13464,-12.526806 c 0,0 0.10534,-1.491187 -1.17344,-3.141906 -1.278772,-1.65072 -3.176133,-2.730968 -3.176133,-2.730968 l -4.669875,4.422076 -0.06287,10.743059 z"
       style="fill:#000000;stroke:#000000;stroke-width:0.065;stroke-linecap:butt;stroke-linejoin:miter;stroke-miterlimit:4;stroke-dasharray:none;stroke-opacity:1" />
  </g>
  <g
     id="lay_24_1">
    <path
       id="path1232"
       d="m 74.054566,80.614209 c 0.01863,-0.13257 -0.559266,-0.93229 -0.297611,-4.068333 0.261651,-3.136045 0.546084,-4.335822 0.546084,-4.335822 l 3.867499,-0.0021 c 0,0 -0.44177,2.342666 -0.323294,5.008528 0.118475,2.665867 0.266149,3.423777 0.266149,3.423777 z"
       style="fill:#000000;stroke:#000000;stroke-width:0.065;stroke-linecap:butt;stroke-linejoin:miter;stroke-miterlimit:4;stroke-dasharray:none;stroke-opacity:1" />
  </g>
  <g
     id="lay_24_0">
    <path
       id="path1190"
       d="m 71.260346,37.429993 4.723511,4.425106 c 0,0 2.031455,-1.048195 3.010606,-2.379477 0.97916,-1.331283 1.46585,-2.911293 1.46585,-2.911293 l 0.0239,-13.22121 c 0,0 -0.25867,-2.109941 -1.44488,-3.372065 C 77.853132,18.708931 74.6854,17.687076 74.6854,17.687076 l -3.341457,9.229529 z"
       style="fill:#000000;stroke:#000000;stroke-width:0.065;stroke-linecap:butt;stroke-linejoin:miter;stroke-miterlimit:4;stroke-dasharray:none;stroke-opacity:1" />
  </g>
  <g
     id="lay_23_1">
    <path
       id="path1235"
       d="m 78.682763,80.619569 c 0,0 -0.332422,-1.85622 -0.145769,-4.18735 0.186649,-2.331125 0.290529,-4.188709 0.290529,-4.188709 l 4.0627,-0.06028 0.008,8.473779 z"
       style="fill:#000000;stroke:#000000;stroke-width:0.065;stroke-linecap:butt;stroke-linejoin:miter;stroke-miterlimit:4;stroke-dasharray:none;stroke-opacity:1" />
  </g>
  <g
     id="lay_23_0">
    <path
       id="path1193"
       d="m 60.333084,26.636046 -7.450638,-7.246347 c 0,0 0.598094,-0.617665 1.449152,-1.02244 0.851057,-0.404776 2.546152,-0.681744 2.546152,-0.681744 l 17.062066,0.03003 -3.06166,8.949455 z"
       style="fill:#000000;stroke:#000000;stroke-width:0.065;stroke-linecap:butt;stroke-linejoin:miter;stroke-miterlimit:4;stroke-dasharray:none;stroke-opacity:1" />
  </g>
  <g
     id="lay_22_1">
    <path
       id="path1259"
       d="m 83.528463,80.621909 0.0486,-8.323805 4.06205,0.0016 c 0,0 0.36304,0.659479 0.36189,3.357015 -10e-4,2.69753 -0.0824,4.95849 -0.0824,4.95849 z"
       style="fill:#000000;stroke:#000000;stroke-width:0.065;stroke-linecap:butt;stroke-linejoin:miter;stroke-miterlimit:4;stroke-dasharray:none;stroke-opacity:1" />
  </g>
  <g
     id="lay_22_0">
    <path
       id="path1238"
       d="m 84.274623,59.212805 5.35134,-1.959454 c 0,0 0.11266,-0.454303 -0.34335,-0.584766 -0.45601,-0.130463 -1.10215,0.214693 -1.10215,0.214693 0,0 -0.69408,0.194017 -0.84148,-0.165274 -0.1474,-0.359291 0.0372,0.545195 -0.55799,0.748768 -0.59518,0.203573 -0.92398,-0.433356 -0.92398,-0.433356 0,0 0.0563,0.489532 -0.79423,0.827667 -0.85053,0.338135 -0.58075,0.208301 -0.84243,0.568063 -0.26168,0.35976 0.0543,0.783659 0.0543,0.783659 z"
       style="fill:#000000;stroke:#000000;stroke-width:0.065;stroke-linecap:butt;stroke-linejoin:miter;stroke-miterlimit:4;stroke-dasharray:none;stroke-opacity:1" />
    <path
       id="path1240"
       d="m 85.946903,59.064234 c 0,0 2.90095,-1.178354 3.59758,-1.123284 0.69662,0.05507 0.9538,0.650603 0.9538,0.650603 0,0 -0.16688,0.389559 -0.63194,0.421539 -0.46507,0.03198 -3.91944,0.05114 -3.91944,0.05114 z"
       style="fill:#000000;stroke:#000000;stroke-width:0.065;stroke-linecap:butt;stroke-linejoin:miter;stroke-miterlimit:4;stroke-dasharray:none;stroke-opacity:1" />
    <path
       id="path1242"
       d="m 86.355953,57.072072 0.49266,-0.200036"
       style="fill:none;stroke:#000000;stroke-width:0.264583px;stroke-linecap:butt;stroke-linejoin:miter;stroke-opacity:1" />
    <path
       id="path1256"
       d="m 85.99256,67.006509 c -0.468564,-0.02569 -0.759637,-0.10736 -0.806765,-0.22633 -0.132747,-0.335105 -0.462063,-2.83914 -0.880269,-6.693331 l -0.05639,-0.519718 1.388478,-0.0071 c 0.763664,-0.0039 2.065176,-0.0079 2.892248,-0.0089 l 1.503769,-0.0016 -0.0069,0.0502 c -0.03323,0.241988 -0.738693,6.905019 -0.738693,6.976933 0,0.175779 -0.07332,0.298702 -0.200671,0.336418 -0.185457,0.05493 -0.638553,0.08042 -1.364387,0.07676 -0.298569,-0.0016 -0.629888,0.0033 -0.755952,0.0109 -0.198252,0.01201 -0.796866,0.01561 -0.974471,0.0059 z m 0.145558,-0.709631 c -0.0024,-0.03086 -0.06849,-1.265227 -0.146661,-2.743044 -0.07817,-1.477817 -0.143127,-2.687428 -0.144338,-2.688029 -0.0062,-0.0031 -0.649743,0.04182 -0.653537,0.04561 -0.0056,0.0056 0.439034,5.380865 0.445659,5.387432 0.0051,0.005 0.402539,0.04978 0.466751,0.05255 l 0.03665,0.0016 z m 2.592229,-0.0118 c 0.02207,-0.01923 0.02627,-0.06027 0.06096,-0.59354 0.02048,-0.315079 0.09004,-1.348904 0.154556,-2.297388 0.06451,-0.948483 0.128948,-1.895903 0.143187,-2.105379 0.01423,-0.209473 0.02365,-0.382873 0.0209,-0.385331 -0.006,-0.0054 -0.65254,0.01601 -0.658318,0.0218 -0.0063,0.0063 -0.284427,5.350291 -0.278786,5.355932 0.01066,0.01066 0.172796,0.0213 0.349078,0.02291 0.160559,0.0016 0.187827,-0.0011 0.208425,-0.019 z m -1.257364,-1.629029 c 0.0043,-0.868355 0.0079,-2.064295 0.0079,-2.657644 V 60.919587 H 87.18219 86.883494 l 0.0043,0.581729 c 0.0024,0.319953 0.01077,1.50241 0.01873,2.627688 0.0079,1.125278 0.01794,2.049457 0.02223,2.053733 0.0072,0.0072 0.397193,0.04712 0.494113,0.05061 l 0.04234,0.0016 z"
       style="fill:#000000;stroke-width:0.00290179;stroke-miterlimit:4;stroke-dasharray:none" />
  </g>
  <g
     id="lay_21_1">
    <path
       id="path1283"
       d="m 88.259803,72.221534 c 0,0 0.35913,1.289897 0.33549,3.372263 -0.0237,2.082362 -0.12639,5.076262 -0.12639,5.076262 l 4.13833,0.007 c 0,0 0.23627,-3.598174 0.14349,-5.865928 -0.0928,-2.267754 -0.44568,-2.516867 -0.44568,-2.516867 z"
       style="fill:#000000;stroke:#000000;stroke-width:0.065;stroke-linecap:butt;stroke-linejoin:miter;stroke-miterlimit:4;stroke-dasharray:none;stroke-opacity:1" />
  </g>
  <g
     id="lay_21_0">
    <path
       id="path1262"
       d="m 86.337543,8.4349121 c 0,0 0.43964,-0.593432 1.56635,-0.585163 1.1267,0.0083 1.46433,0.496675 1.46433,0.496675 0,0 0.62463,0.475981 1.79658,0.423328 1.17196,-0.05265 1.6061,-0.802383 1.6061,-0.802383 l 0.0382,5.8845109 c 0,0 -0.41765,0.627345 -1.44499,0.636791 -1.02733,0.0094 -1.64761,-0.692251 -1.64761,-0.692251 0,0 -0.32542,-0.630639 -1.5326,-0.649729 -1.20718,-0.01908 -1.87764,0.870812 -1.87764,0.870812 z"
       style="fill:none;stroke:#000000;stroke-width:0.065;stroke-linecap:butt;stroke-linejoin:miter;stroke-miterlimit:4;stroke-dasharray:none;stroke-opacity:1" />
    <path
       id="path1264"
       d="m 86.363733,10.069021 c 0,0 1.50333,-1.1893159 3.10107,0.07088 1.59773,1.260197 3.3017,-0.2086379 3.3017,-0.2086379"
       style="fill:none;stroke:#000000;stroke-width:0.065;stroke-linecap:butt;stroke-linejoin:miter;stroke-miterlimit:4;stroke-dasharray:none;stroke-opacity:1" />
    <path
       id="path1266"
       d="m 86.319433,11.986591 c 0,0 1.59279,-1.466763 3.38279,-0.06378 1.79,1.402985 3.10174,-0.03753 3.10174,-0.03753"
       style="fill:none;stroke:#000000;stroke-width:0.065;stroke-linecap:butt;stroke-linejoin:miter;stroke-miterlimit:4;stroke-dasharray:none;stroke-opacity:1" />
    <path
       id="path1268"
       d="M 88.366203,7.9041551 88.355103,13.1473"
       style="fill:none;stroke:#000000;stroke-width:0.065;stroke-linecap:butt;stroke-linejoin:miter;stroke-miterlimit:4;stroke-dasharray:none;stroke-opacity:1" />
    <path
       id="path1270"
       d="m 90.761803,8.7727131 0.0122,5.6212559"
       style="fill:none;stroke:#000000;stroke-width:0.065;stroke-linecap:butt;stroke-linejoin:miter;stroke-miterlimit:4;stroke-dasharray:none;stroke-opacity:1" />
    <path
       id="path1272"
       d="M 86.372531,9.2250025 V 8.4465322 l 0.08491,-0.078618 c 0.253196,-0.2344208 0.636879,-0.4004151 1.05614,-0.4569221 0.130421,-0.017568 0.556999,-0.021325 0.713394,-0.00624 l 0.100399,0.00968 -0.0041,0.8171498 c -0.0024,0.4494318 -0.0059,0.8189806 -0.008,0.8212164 -0.0021,0.00212 -0.05343,-0.0028 -0.113996,-0.011218 -0.153233,-0.021273 -0.49299,-0.017965 -0.653454,0.00635 -0.389641,0.059089 -0.813171,0.2198159 -1.112433,0.4221639 -0.02716,0.018362 -0.0524,0.033385 -0.05611,0.033385 -0.0037,0 -0.0067,-0.3502919 -0.0067,-0.7784485 z"
       style="fill:#000000;stroke-width:0.00290179;stroke-miterlimit:4;stroke-dasharray:none" />
    <path
       id="path1274"
       d="m 86.350877,12.957797 0.0039,-0.948925 0.04134,-0.03466 c 0.07763,-0.06508 0.244991,-0.178679 0.367665,-0.249553 0.441494,-0.255079 0.978484,-0.394522 1.418865,-0.368445 l 0.138787,0.0082 v 0.871127 0.871127 l -0.227375,0.0065 c -0.131082,0.0038 -0.274899,0.015 -0.33959,0.02652 -0.49566,0.08825 -0.939186,0.313862 -1.296421,0.659455 l -0.111141,0.107519 z"
       style="fill:#000000;stroke-width:0.00290179;stroke-miterlimit:4;stroke-dasharray:none" />
    <path
       id="path1276"
       d="m 91.055891,14.431727 c -0.03898,-0.0056 -0.109405,-0.01855 -0.156506,-0.0289 l -0.08563,-0.01881 v -0.930881 -0.930878 l 0.07465,0.01564 c 0.321257,0.06734 0.716425,0.03854 1.065183,-0.07763 0.226912,-0.07558 0.541489,-0.252542 0.73233,-0.411959 0.05428,-0.04534 0.07142,-0.05451 0.07324,-0.03917 0.0013,0.01101 0.0043,0.42931 0.0068,0.929537 l 0.0044,0.909505 -0.101264,0.100703 c -0.258053,0.256627 -0.603115,0.420637 -1.005215,0.477782 -0.134575,0.01913 -0.488347,0.02207 -0.607952,0.0051 z"
       style="fill:#000000;stroke-width:0.00290179;stroke-miterlimit:4;stroke-dasharray:none" />
    <path
       id="path1278"
       d="m 90.828516,10.609358 -0.02658,-0.0051 V 9.7090577 8.8138903 l 0.26281,-0.00704 c 0.45357,-0.012118 0.745395,-0.079026 1.07419,-0.2462451 0.187762,-0.095491 0.32231,-0.1929871 0.473006,-0.3427465 l 0.126831,-0.1260422 0.0031,0.899713 0.0031,0.8997129 -0.03544,0.032607 c -0.0195,0.017939 -0.10985,0.082759 -0.200801,0.1440526 -0.486579,0.32793 -1.028967,0.518475 -1.541433,0.541523 -0.06172,0.0028 -0.124172,0.0027 -0.138787,-8.5e-5 z"
       style="fill:#000000;stroke-width:0.00290179;stroke-miterlimit:4;stroke-dasharray:none" />
    <path
       id="path1280"
       d="m 90.61295,12.384344 c -0.297059,-0.101658 -0.551223,-0.240731 -0.844355,-0.462012 -0.169079,-0.127638 -0.316066,-0.227539 -0.442325,-0.30063 -0.23396,-0.135443 -0.540996,-0.250894 -0.791517,-0.297625 l -0.145915,-0.02722 0.0076,-0.342542 c 0.0042,-0.188397 0.0076,-0.556903 0.0076,-0.818902 l 2.1e-5,-0.4763609 0.03839,0.00788 c 0.09435,0.019341 0.334026,0.1070293 0.463611,0.1695979 0.18389,0.088789 0.313711,0.169984 0.531529,0.332438 0.19539,0.14573 0.341275,0.235913 0.50659,0.313166 0.211288,0.09873 0.479118,0.173067 0.686855,0.190627 0.04965,0.0042 0.09249,0.01344 0.09521,0.02056 0.0027,0.0071 0.0036,0.399148 0.0019,0.871178 l -0.003,0.858239 z"
       style="fill:#000000;stroke-width:0.00290179;stroke-miterlimit:4;stroke-dasharray:none" />
  </g>
  <g
     id="lay_20_1">
    <path
       id="path1289"
       d="m 92.917463,72.235134 c 0,0 0.53881,1.126635 0.47213,3.920196 -0.0667,2.793559 -0.12545,4.478169 -0.12545,4.478169 l 3.85806,-0.0487 c 0,0 0.38273,-0.68529 0.34891,-4.213406 -0.0338,-3.528116 -0.64235,-4.064368 -0.64235,-4.064368 z"
       style="fill:#000000;stroke:#000000;stroke-width:0.065;stroke-linecap:butt;stroke-linejoin:miter;stroke-miterlimit:4;stroke-dasharray:none;stroke-opacity:1" />
  </g>
  <g
     id="lay_20_0">
    <path
       id="path1286"
       d="m 94.557743,7.3645161 1.48203,-0.05535 c 0,0 0.43341,0.01939 1.10365,0.173365 0.67024,0.153983 0.65807,0.209148 0.65807,0.209148 l 1.1353,-0.01058 0.0151,0.222073 0.2891,-0.01371 0.0315,0.461481 c 0,0 0.810017,0.176252 1.691297,0.797237 0.88129,0.620985 1.48864,1.3037349 1.48864,1.3037349 0,0 0.1612,0.144515 -0.0782,0.266321 -0.23939,0.121809 -0.5242,-0.04164 -0.5242,-0.04164 0,0 -0.4525,-0.497287 -1.27644,-1.0130289 -0.823927,-0.515745 -1.252037,-0.774007 -1.252037,-0.774007 0,0 -0.22519,-0.149521 -0.23763,0.08229 -0.0124,0.23181 -0.0269,5.1626089 -0.0269,5.1626089 0,0 -0.16096,0.16923 -0.4358,0.162361 -0.27483,-0.0069 -0.43584,-0.17418 -0.43584,-0.17418 l -0.10292,-5.1634209 -0.30986,-0.04693 0.005,-0.673534 c 0,0 -0.0712,-0.22942 -1.30491,-0.371959 -1.23375,-0.142542 -1.58511,-0.05494 -1.58511,-0.05494 0,0 -0.19867,-0.0055 -0.30512,-0.1675 -0.10645,-0.162039 -0.0248,-0.279826 -0.0248,-0.279826 z"
       style="fill:#000000;stroke:#000000;stroke-width:0.065;stroke-linecap:butt;stroke-linejoin:miter;stroke-miterlimit:4;stroke-dasharray:none;stroke-opacity:1" />
  </g>
  <g
     id="lay_19_1">
    <path
       id="path1295"
       d="m 102.66754,80.398009 c 0,0 0.40859,-2.05206 0.23392,-4.233503 -0.17468,-2.18144 -0.70313,-3.882708 -0.70313,-3.882708 l 3.94544,-0.04991 c 0,0 1.09556,2.102905 0.93543,4.561998 -0.16013,2.459093 -0.27925,3.580203 -0.27925,3.580203 z"
       style="fill:#000000;stroke:#000000;stroke-width:0.065;stroke-linecap:butt;stroke-linejoin:miter;stroke-miterlimit:4;stroke-dasharray:none;stroke-opacity:1" />
  </g>
  <g
     id="lay_19_0">
    <path
       id="path1292"
       d="m 97.792213,80.611169 c 0.028,-0.0894 0.37236,-2.0752 0.38062,-4.143033 0.008,-2.06783 -0.60492,-4.17204 -0.60492,-4.17204 l 3.962867,-0.03882 c 0,0 0.68037,2.580458 0.69103,4.864193 0.0107,2.28374 -0.27311,3.46235 -0.27311,3.46235 z"
       style="fill:#000000;stroke:#000000;stroke-width:0.065;stroke-linecap:butt;stroke-linejoin:miter;stroke-miterlimit:4;stroke-dasharray:none;stroke-opacity:1" />
  </g>
  <g
     id="lay_18_1">
    <path
       id="path1301"
       d="m 112.05153,80.276789 c 0,0 0.60064,-0.31286 0.40494,-3.79414 -0.19572,-3.481279 -0.85951,-4.287277 -0.85951,-4.287277 L 115.4935,72.059 c 0,0 0.98921,1.844096 1.01408,3.877464 0.0249,2.033375 -0.30327,4.133505 -0.30327,4.133505 z"
       style="fill:#000000;stroke:#000000;stroke-width:0.065;stroke-linecap:butt;stroke-linejoin:miter;stroke-miterlimit:4;stroke-dasharray:none;stroke-opacity:1" />
  </g>
  <g
     id="lay_18_0">
    <path
       id="path1298"
       d="m 107.5834,80.373529 c 0.0155,-0.0768 0.36683,-2.06667 0.27757,-4.111821 -0.0893,-2.045152 -0.87513,-3.917645 -0.87513,-3.917645 l 3.87197,-0.142505 c 0,0 0.8648,1.994239 0.85341,4.546703 -0.0114,2.552468 -0.23944,3.543128 -0.23944,3.543128 z"
       style="fill:#000000;stroke:#000000;stroke-width:0.065;stroke-linecap:butt;stroke-linejoin:miter;stroke-miterlimit:4;stroke-dasharray:none;stroke-opacity:1" />
  </g>
  <g
     id="lay_17_1">
    <path
       id="path1307"
       d="m 121.59554,79.955039 c 0,0 0.45442,-1.59526 0.35777,-4.239357 -0.0967,-2.644089 -1.03751,-3.824954 -1.03751,-3.824954 l 3.94536,-0.126704 c 0,0 1.24244,2.041314 1.18931,4.38657 -0.0531,2.345255 -0.24872,3.722065 -0.24872,3.722065 z"
       style="fill:#000000;stroke:#000000;stroke-width:0.065;stroke-linecap:butt;stroke-linejoin:miter;stroke-miterlimit:4;stroke-dasharray:none;stroke-opacity:1" />
  </g>
  <g
     id="lay_17_0">
    <path
       id="path1304"
       d="m 116.85129,80.107129 c 0,0 0.45035,-1.0922 0.4221,-3.74894 -0.0283,-2.656737 -1.09322,-4.343064 -1.09322,-4.343064 l 3.92526,-0.0966 c 0,0 1.35126,2.521005 1.15856,4.809699 -0.1927,2.288705 -0.36156,3.268665 -0.36156,3.268665 z"
       style="fill:#000000;stroke:#000000;stroke-width:0.065;stroke-linecap:butt;stroke-linejoin:miter;stroke-miterlimit:4;stroke-dasharray:none;stroke-opacity:1" />
  </g>
  <g
     id="lay_16_1">
    <path
       id="path1313"
       d="m 126.56386,79.852359 c 0,0 0.39317,-2.36003 0.17835,-4.681139 -0.21481,-2.32111 -1.20029,-3.488412 -1.20029,-3.488412 l 3.81178,-0.07491 c 0,0 1.41535,2.62975 1.45849,4.577583 0.0431,1.947828 -0.40419,3.419538 -0.40419,3.419538 z"
       style="fill:#000000;stroke:#000000;stroke-width:0.065;stroke-linecap:butt;stroke-linejoin:miter;stroke-miterlimit:4;stroke-dasharray:none;stroke-opacity:1" />
  </g>
  <g
     id="lay_16_0">
    <path
       id="path1310"
       d="m 113.97201,69.548245 1.99534,0.0137 -0.0128,-6.856243 -2.00635,-0.01077 -0.002,2.606532 c 0,0 -11.80864,-0.241036 -18.827247,-10.023417 -7.01861,-9.782381 -5.35886,-14.778058 -5.35886,-14.778058 l 2.11129,-0.06306 0.0345,-2.058863 -2.14245,-0.151522 c 0,0 -0.37973,-10.050269 7.44631,-17.162787 3.531237,-3.20929 6.166027,-4.834943 10.681207,-6.270651 3.43888,-1.093471 6.44634,-1.301 6.44634,-1.301 l 0.0654,2.321135 2.22908,0.199821 0.0812,-2.324687 c 0,0 10.9612,0.950027 16.18801,6.759143 1.74619,1.940734 2.80788,2.540061 5.17087,6.633075 2.87642,4.982351 3.37086,11.328778 3.37086,11.328778 l -1.95794,-0.117927 -0.0502,1.964103 1.98512,0.182279 c 0,0 -0.72912,6.928369 -3.03603,11.020428 -2.30691,4.092056 -2.28298,3.852044 -5.67186,7.287148 -3.38888,3.435104 -5.00554,3.610407 -5.00554,3.610407 l 0.94158,1.843764 c 0,0 6.58112,-3.349488 10.59624,-10.127432 4.05376,-6.843161 4.00261,-13.520481 4.00261,-13.520481 l 2.12822,-0.100719 0.0256,-2.143196 -1.98791,-0.06897 c 0,0 -0.10674,-6.49538 -4.63085,-13.972867 -4.52411,-7.477488 -10.39293,-9.578516 -13.21644,-10.854148 -3.03356,-1.37053 -9.00654,-1.834134 -9.00654,-1.834134 l 0.0677,-2.1374949 -2.23655,-0.07667 0.0388,2.3140749 c 0,0 -7.8521,1.134936 -10.31716,2.185747 -2.46505,1.050811 -7.659697,4.713507 -9.379827,6.944534 -1.72014,2.231025 -3.45991,3.510582 -6.01463,10.547834 -1.07886,2.971846 -0.90419,7.08015 -0.90419,7.08015 l -2.21775,-0.07277 0.0248,2.029812 2.02512,0.09476 c 0,0 0.55451,5.85538 2.29092,9.736608 1.73642,3.881229 3.36892,5.915083 4.83955,7.768156 1.47063,1.853073 5.890637,5.21294 7.868007,6.22336 1.97736,1.010417 2.7744,1.542997 5.53231,2.203619 2.75791,0.66062 5.71857,0.713237 5.71857,0.713237 z"
       style="fill:#000000;stroke:#000000;stroke-width:0.065;stroke-linecap:butt;stroke-linejoin:miter;stroke-miterlimit:4;stroke-dasharray:none;stroke-opacity:1" />
  </g>
  <g
     id="lay_15_1">
    <path
       id="path1319"
       d="m 131.15412,79.570459 c 0,0 0.67728,-1.84994 0.15057,-4.855865 -0.52671,-3.005928 -1.06207,-2.918862 -1.06207,-2.918862 l 3.80822,-0.252026 c 0,0 1.15646,1.755783 1.2865,4.078314 0.13003,2.322529 -0.13948,3.697299 -0.13948,3.697299 z"
       style="fill:#000000;stroke:#000000;stroke-width:0.065;stroke-linecap:butt;stroke-linejoin:miter;stroke-miterlimit:4;stroke-dasharray:none;stroke-opacity:1" />
  </g>
  <g
     id="lay_15_0">
    <path
       id="path1316"
       d="m 104.03535,59.118955 c 0,0 -2.14962,-1.110057 -4.607777,-3.657841 -2.45816,-2.547784 -2.8286,-3.737954 -2.8286,-3.737954 l 1.68631,-1.212345 c 0,0 0.84105,1.879942 3.084617,3.927124 2.24358,2.047181 3.84596,2.922688 3.84596,2.922688 z"
       style="fill:#000000;stroke:#000000;stroke-width:0.065;stroke-linecap:butt;stroke-linejoin:miter;stroke-miterlimit:4;stroke-dasharray:none;stroke-opacity:1" />
  </g>
  <g
     id="lay_14_1">
    <path
       id="path1325"
       d="m 135.91515,79.288349 c 0,0 0.42073,-2.412334 0.0783,-4.690854 -0.34248,-2.278518 -1.1712,-3.205242 -1.1712,-3.205242 l 3.86103,-0.0918 c 0,0 1.57885,2.526239 1.68827,4.185915 0.10942,1.659673 -0.30343,3.520381 -0.30343,3.520381 z"
       style="fill:#000000;stroke:#000000;stroke-width:0.065;stroke-linecap:butt;stroke-linejoin:miter;stroke-miterlimit:4;stroke-dasharray:none;stroke-opacity:1" />
  </g>
  <g
     id="lay_14_0">
    <path
       id="path1322"
       d="m 96.323863,50.971159 c 0,0 -1.6036,-2.495436 -2.44542,-5.480122 -0.84182,-2.984685 -0.78743,-5.449959 -0.78743,-5.449959 l 2.16923,-0.01106 c 0,0 -0.34523,2.015937 0.69434,5.345848 1.03957,3.329911 2.00199,4.589129 2.00199,4.589129 z"
       style="fill:#000000;stroke:#000000;stroke-width:0.065;stroke-linecap:butt;stroke-linejoin:miter;stroke-miterlimit:4;stroke-dasharray:none;stroke-opacity:1" />
  </g>
  <g
     id="lay_13_1">
    <path
       id="path1331"
       d="m 140.78226,79.019209 c 0.0186,-0.0817 0.52437,-1.42182 0.18042,-4.231542 -0.34395,-2.809719 -1.5279,-3.575436 -1.5279,-3.575436 l 4.2224,-0.09716 c 0,0 1.25209,2.634863 1.29579,3.870301 0.0437,1.235437 -5.3e-4,3.777657 -5.3e-4,3.777657 z"
       style="fill:#000000;stroke:#000000;stroke-width:0.065;stroke-linecap:butt;stroke-linejoin:miter;stroke-miterlimit:4;stroke-dasharray:none;stroke-opacity:1" />
  </g>
  <g
     id="lay_13_0">
    <path
       id="path1328"
       d="m 95.309853,39.212274 -2.03521,0.06077 c 0,0 -0.045,-2.466998 0.54,-4.909542 0.58495,-2.442543 2.18804,-5.554122 2.18804,-5.554122 l 1.78821,0.951322 c 0,0 -0.77602,1.11592 -1.63952,3.683373 -0.8635,2.567453 -0.84152,5.7682 -0.84152,5.768199 z"
       style="fill:#000000;stroke:#000000;stroke-width:0.065;stroke-linecap:butt;stroke-linejoin:miter;stroke-miterlimit:4;stroke-dasharray:none;stroke-opacity:1" />
  </g>
  <g
     id="lay_12_1">
    <path
       id="path1337"
       d="m 145.69085,78.796009 c 0,0 0.28171,-3.220569 -0.39017,-5.345586 -0.67189,-2.125017 -1.02702,-2.366661 -1.02702,-2.366661 L 148.08949,70.789 c 0,0 1.28963,1.241783 1.54584,2.640521 0.25621,1.398741 0.5464,1.600528 0.48787,3.082076 -0.0585,1.481552 -0.30486,2.007312 -0.30486,2.007312 z"
       style="fill:#000000;stroke:#000000;stroke-width:0.065;stroke-linecap:butt;stroke-linejoin:miter;stroke-miterlimit:4;stroke-dasharray:none;stroke-opacity:1" />
  </g>
  <g
     id="lay_12_0">
    <path
       id="path1334"
       d="m 98.215733,29.250772 -1.84863,-1.077137 c 0,0 1.15584,-1.936221 3.10229,-4.069252 1.946447,-2.133031 4.497327,-3.608583 4.497327,-3.608583 l 1.06234,1.694463 c 0,0 -2.00945,1.082434 -4.05437,3.276896 -2.044927,2.194462 -2.758957,3.783613 -2.758957,3.783613 z"
       style="fill:#000000;stroke:#000000;stroke-width:0.065;stroke-linecap:butt;stroke-linejoin:miter;stroke-miterlimit:4;stroke-dasharray:none;stroke-opacity:1" />
  </g>
  <g
     id="lay_11_1">
    <path
       id="path1358"
       d="m 104.60877,54.996434 c -0.0264,-0.116422 -1.02616,-2.720284 0.1687,-4.755015 1.19485,-2.03473 2.71915,-2.713415 4.37001,-2.687068 1.65087,0.02635 2.1384,0.171849 2.60163,0.385151 0.46323,0.213299 1.31031,1.010827 1.31031,1.010827 l 3.52484,-3.397416 c 0,0 -1.65823,-1.644605 -4.96656,-1.649093 -3.30833,-0.0045 -4.72724,1.321978 -5.4197,2.085835 -0.69247,0.763855 -1.72285,1.930411 -1.98922,2.949522 -0.26638,1.019112 -0.65267,2.740189 -0.48136,3.775914 0.17131,1.035725 0.88135,2.281343 0.88135,2.281343 z"
       style="fill:#000000;stroke:#000000;stroke-width:0.065;stroke-linecap:butt;stroke-linejoin:miter;stroke-miterlimit:4;stroke-dasharray:none;stroke-opacity:1" />
    <path
       id="path1364"
       d="m 109.20429,56.413574 c -0.66237,-0.05165 -1.40598,-0.345342 -2.01344,-0.795223 -0.20567,-0.152313 -0.31149,-0.245581 -0.52311,-0.461042 -0.24808,-0.252577 -0.32461,-0.355518 -0.44071,-0.592812 -0.22152,-0.452771 -0.3382,-1.002242 -0.37109,-1.747634 -0.0182,-0.413136 0.0108,-0.713126 0.10069,-1.041172 0.16097,-0.587338 0.53982,-1.177976 1.05058,-1.637901 0.14647,-0.131892 0.35794,-0.296098 0.49029,-0.380696 0.0487,-0.03115 0.12313,-0.08827 0.16536,-0.126939 0.26926,-0.246578 0.68423,-0.427233 1.12212,-0.488513 0.18952,-0.02652 0.58695,-0.01738 0.78281,0.01802 0.40799,0.07373 0.9603,0.264795 1.42033,0.491339 0.43979,0.216575 0.77229,0.456298 0.9991,0.72032 0.0168,0.0195 0.0692,0.06966 0.11658,0.111482 0.18474,0.1631 0.37491,0.427284 0.51492,0.715341 0.14421,0.296701 0.22416,0.549881 0.28164,0.891884 0.1111,0.66108 0.0492,1.443747 -0.16398,2.072868 -0.14868,0.4388 -0.3572,0.787863 -0.65441,1.095499 -0.21087,0.218257 -0.42045,0.372935 -0.72794,0.537231 -0.0844,0.04513 -0.21195,0.115779 -0.28333,0.157007 -0.40361,0.233132 -0.84769,0.3875 -1.26991,0.441441 -0.17495,0.02236 -0.44619,0.03121 -0.5965,0.0195 z m 1.8275,-4.34431 0.59898,-0.599448 0.0178,-0.389786 c 0.01,-0.214384 0.021,-0.436298 0.0249,-0.493141 l 0.007,-0.103352 h -0.43645 -0.43645 l -0.44666,0.457705 c -0.24567,0.251738 -0.50907,0.521489 -0.58534,0.599446 l -0.13868,0.141742 -0.0184,0.407504 c -0.0101,0.224128 -0.0211,0.443216 -0.0245,0.486859 l -0.006,0.07935 0.13884,0.0037 c 0.0764,0.0021 0.26642,0.0049 0.42236,0.0063 l 0.28353,0.0026 z"
       style="fill:#000000;stroke-width:0.00290179;stroke-miterlimit:4;stroke-dasharray:none" />
  </g>
  <g
     id="lay_11_0">
    <path
       id="path1340"
       d="m 105.73304,21.775116 -1.00136,-1.56096 c 0,0 1.76933,-1.487863 4.51123,-2.134124 2.7419,-0.646258 5.97984,-0.858157 5.97984,-0.858157 l 0.0245,2.06067 c 0,0 -2.71429,-0.01267 -4.78012,0.602094 -2.06583,0.614759 -4.73408,1.890477 -4.73408,1.890477 z"
       style="fill:#000000;stroke:#000000;stroke-width:0.065;stroke-linecap:butt;stroke-linejoin:miter;stroke-miterlimit:4;stroke-dasharray:none;stroke-opacity:1" />
  </g>
  <g
     id="lay_10_1">
    <path
       id="path1367"
       d="m 104.38215,34.666949 c 0,0 0.4906,-0.206528 0.80089,7.4e-5 0.31029,0.206605 -0.1417,1.16082 -0.1417,1.16082 l -1.21547,1.814923 c 0,0 -0.50374,0.613505 -0.26689,0.868896 0.23683,0.25539 0.34318,0.313254 0.79114,0.322287 0.44797,0.009 1.40028,0.01765 1.40028,0.01765 0,0 0.54054,0.370621 0.46365,0.809805 -0.0769,0.439188 -0.23307,0.512818 -0.51389,0.506095 -0.28083,-0.0067 -8.264817,0.120214 -8.264817,0.120214 0,0 -0.54375,-0.184214 -0.49643,-0.696381 0.0473,-0.512167 0.29207,-0.698418 0.55683,-0.687242 0.26476,0.01117 3.407737,-0.03827 3.407737,-0.03827 l 1.68069,-1.453555 z"
       style="fill:#000000;stroke:#000000;stroke-width:0.065;stroke-linecap:butt;stroke-linejoin:miter;stroke-miterlimit:4;stroke-dasharray:none;stroke-opacity:1" />
    <path
       id="path1369"
       d="m 101.65151,40.81554 -2.001617,1.877701 1.561447,0.04025 0.027,2.430846 -1.627377,0.04752 1.959517,1.916255 2.08662,-1.829104 -1.6935,-0.140055 0.0438,-2.323573 1.5947,-0.03181 z"
       style="fill:#000000;stroke:#000000;stroke-width:0.065;stroke-linecap:butt;stroke-linejoin:miter;stroke-miterlimit:4;stroke-dasharray:none;stroke-opacity:1" />
  </g>
  <g
     id="lay_10_0">
    <path
       id="path1343"
       d="m 115.96595,19.33266 -0.0207,-2.007341 c 0,0 3.22818,-0.09051 5.69234,0.736097 2.46414,0.826606 4.95097,2.054527 4.95097,2.054527 l -0.92995,1.749729 c 0,0 -2.27538,-1.315482 -4.36232,-1.983369 -2.08693,-0.667888 -5.33032,-0.549643 -5.33032,-0.549643 z"
       style="fill:#000000;stroke:#000000;stroke-width:0.065;stroke-linecap:butt;stroke-linejoin:miter;stroke-miterlimit:4;stroke-dasharray:none;stroke-opacity:1" />
  </g>
  <g
     id="lay_9_1">
    <path
       id="path1378"
       d="m 108.53762,34.184844 c -0.63655,-0.06908 -1.35827,-0.247965 -1.88139,-0.466315 -0.59078,-0.246594 -0.78975,-0.388765 -1.4537,-1.038704 -0.83025,-0.812736 -1.22245,-1.331746 -1.51715,-2.007669 -0.13913,-0.319127 -0.35412,-0.980403 -0.48902,-1.504159 -0.11027,-0.428095 -0.11256,-0.444285 -0.11184,-0.791389 0.002,-1.159315 0.4217,-2.271126 1.18943,-3.153738 0.11866,-0.136425 0.38877,-0.428932 0.60025,-0.650013 1.22409,-1.27971 2.09225,-1.773986 3.34353,-1.903613 0.38272,-0.03965 1.29053,-0.0145 1.69509,0.04694 1.40871,0.213971 2.45873,0.831406 3.37909,1.986971 0.73769,0.926211 1.23301,1.997017 1.43696,3.106491 0.0595,0.323467 0.0709,0.993931 0.0237,1.381974 -0.15677,1.286741 -0.65851,2.323495 -1.56064,3.224769 -0.99731,0.996373 -2.16491,1.621297 -3.30954,1.771345 -0.33362,0.04373 -0.92689,0.04246 -1.34474,-0.0029 z m 1.58596,-1.197515 c 0.61295,-0.156548 1.09823,-0.436462 1.79484,-1.035288 0.61173,-0.525859 0.90797,-0.911685 1.18547,-1.543973 0.16906,-0.385204 0.36673,-1.05138 0.32453,-1.093706 -0.0289,-0.02899 -0.98938,-0.04583 -1.02651,-0.01799 -0.0558,0.04183 -0.22198,0.313364 -0.40384,0.659791 l -0.17192,0.327507 -0.0777,-0.126707 c -0.3206,-0.522573 -0.78131,-1.232463 -0.79858,-1.230519 -0.0116,0.0013 -0.24166,0.493274 -0.51135,1.093269 -0.31584,0.702676 -0.49485,1.075217 -0.50299,1.046819 -0.0388,-0.135393 -0.51602,-2.256343 -0.50882,-2.261558 0.005,-0.0034 0.0897,-0.07157 0.18872,-0.151408 l 0.18009,-0.145166 0.15593,0.42762 c 0.1515,0.41547 0.17191,0.463283 0.18886,0.442624 0.004,-0.0054 0.16477,-0.403175 0.35628,-0.883915 0.1915,-0.480737 0.3567,-0.882906 0.36709,-0.893707 0.0104,-0.01079 0.26534,0.342667 0.56654,0.785482 0.30121,0.442815 0.55214,0.805119 0.55764,0.805119 0.006,0 0.0594,-0.08504 0.11981,-0.188986 l 0.10981,-0.18899 0.14446,5.29e-4 c 0.0795,2.65e-4 0.37302,0.01601 0.65236,0.03493 0.67278,0.0456 0.60975,0.05071 0.6565,-0.05315 0.0656,-0.145688 0.0569,-0.813983 -0.015,-1.151647 -0.12153,-0.570844 -0.37962,-1.217226 -0.6424,-1.608815 -0.12629,-0.188208 -0.43819,-0.521644 -0.53654,-0.573593 -0.0502,-0.02651 -0.18634,0.104381 -2.4096,2.316562 -1.29602,1.289564 -2.76008,2.745936 -3.25347,3.236384 l -0.89706,0.891722 0.0669,0.06978 c 0.15,0.156564 0.74534,0.543129 1.15398,0.749297 0.53998,0.272434 0.9833,0.341297 2.12063,0.329406 0.58411,-0.0061 0.64206,-0.01064 0.86545,-0.06769 z m -1.28803,-4.704016 c 1.77208,-1.811854 3.22197,-3.307988 3.22197,-3.324744 0,-0.07188 -0.91154,-0.727329 -1.24702,-0.896678 -0.52271,-0.263864 -1.0255,-0.341492 -2.07756,-0.320775 -0.47671,0.0094 -0.63974,0.02122 -0.80953,0.05879 -0.80145,0.177282 -1.54368,0.64389 -2.32546,1.461908 -0.46126,0.482648 -0.68232,0.779888 -0.8934,1.201293 -0.26091,0.520882 -0.37323,1.027067 -0.35383,1.594588 0.006,0.188397 0.0234,0.371943 0.0377,0.407879 l 0.026,0.06534 0.65362,-0.0063 0.65363,-0.0063 0.34491,-0.618374 c 0.1897,-0.340103 0.352,-0.611182 0.36067,-0.602398 0.0211,0.02133 0.72882,2.081363 0.7268,2.115444 -0.001,0.02455 -0.47545,0.441627 -0.48848,0.429811 -0.003,-0.0029 -0.0913,-0.248447 -0.19582,-0.545701 -0.10452,-0.297257 -0.1961,-0.546248 -0.20349,-0.553318 -0.007,-0.0071 -0.11276,0.09345 -0.23413,0.223383 l -0.22067,0.236233 h -0.66855 -0.66855 l 0.006,0.165365 c 0.0184,0.520861 0.2171,1.090377 0.56046,1.606412 0.14107,0.212016 0.49316,0.602387 0.54331,0.602387 0.0163,0 1.47948,-1.482426 3.25157,-3.294282 z"
       style="fill:#000000;stroke-width:0.00580358;stroke-miterlimit:4;stroke-dasharray:none" />
    <path
       id="path1380"
       d="m 107.28891,31.006751 0.0666,0.990248 0.22105,-0.835498 0.1643,0.04135 0.016,-0.769565 z"
       style="fill:#000000;stroke:#000000;stroke-width:0.065;stroke-linecap:butt;stroke-linejoin:miter;stroke-miterlimit:4;stroke-dasharray:none;stroke-opacity:1" />
    <path
       id="path1382"
       d="m 107.68455,28.938911 0.67098,-0.586306 0.31848,-1.211295 0.3165,0.533887 0.43658,-0.340707 -0.61983,-2.789089 z"
       style="fill:#000000;stroke:#000000;stroke-width:0.065;stroke-linecap:butt;stroke-linejoin:miter;stroke-miterlimit:4;stroke-dasharray:none;stroke-opacity:1" />
  </g>
  <g
     id="lay_9_0">
    <path
       id="path1346"
       d="m 133.29963,29.348411 c 0,0 -1.48063,-2.478074 -3.2368,-4.14973 -1.75616,-1.671656 -3.86984,-2.918333 -3.86984,-2.918333 l 1.12384,-1.762879 c 0,0 3.04231,1.941502 4.22247,3.233746 1.18016,1.292243 3.46808,4.468548 3.46808,4.468548 z"
       style="fill:#000000;stroke:#000000;stroke-width:0.065;stroke-linecap:butt;stroke-linejoin:miter;stroke-miterlimit:4;stroke-dasharray:none;stroke-opacity:1" />
  </g>
  <g
     id="lay_8_1">
    <path
       id="path1385"
       d="m 116.73734,28.763172 c 0,0.270396 0.0103,3.57796 0.0103,3.57796 l 1.93322,-1.842749 z"
       style="fill:#000000;stroke:#000000;stroke-width:0.065;stroke-linecap:butt;stroke-linejoin:miter;stroke-miterlimit:4;stroke-dasharray:none;stroke-opacity:1" />
    <path
       id="path1387"
       d="m 119.21589,29.997993 c 0,0 1.60808,0.336052 1.97577,-3.064762 0.36769,-3.400814 0.58149,-4.128516 0.58149,-4.128516 0,0 0.0737,-0.644646 0.49856,-0.675359 0.42489,-0.03072 0.6189,1.063903 0.78167,2.774357 0.16276,1.710455 0.62774,3.976965 0.84689,4.28878 0.21916,0.311816 0.73837,0.787593 1.22377,0.754665 0.4854,-0.03293 1.17213,-0.363606 1.44705,-1.856129 0.27492,-1.492519 0.43025,-2.014651 0.67759,-1.973524 0.24733,0.04112 0.52014,1.038638 0.72131,2.185257 0.20116,1.14662 0.8722,1.635033 0.8722,1.635033 z"
       style="fill:#000000;stroke:#000000;stroke-width:0.065;stroke-linecap:butt;stroke-linejoin:miter;stroke-miterlimit:4;stroke-dasharray:none;stroke-opacity:1" />
    <path
       id="path1389"
       d="m 119.23251,30.938576 10.11584,0.02919 -0.0351,1.513816 -10.05683,0.04599 z"
       style="fill:#000000;stroke:#000000;stroke-width:0.065;stroke-linecap:butt;stroke-linejoin:miter;stroke-miterlimit:4;stroke-dasharray:none;stroke-opacity:1" />
    <path
       id="path1391"
       d="m 121.724,29.84259 -0.0214,1.355037"
       style="fill:none;stroke:#000000;stroke-width:0.264583px;stroke-linecap:butt;stroke-linejoin:miter;stroke-opacity:1" />
    <path
       id="path1393"
       d="m 123.0702,29.86056 -0.01,1.295593"
       style="fill:none;stroke:#000000;stroke-width:0.264583px;stroke-linecap:butt;stroke-linejoin:miter;stroke-opacity:1" />
    <path
       id="path1395"
       d="m 124.43825,29.914104 -0.0657,1.233257"
       style="fill:none;stroke:#000000;stroke-width:0.264583px;stroke-linecap:butt;stroke-linejoin:miter;stroke-opacity:1" />
    <path
       id="path1397"
       d="m 128.08487,29.823659 0.0221,1.286867"
       style="fill:none;stroke:#000000;stroke-width:0.264583px;stroke-linecap:butt;stroke-linejoin:miter;stroke-opacity:1" />
    <path
       id="path1399"
       d="m 129.38438,29.92374 -0.036,1.044025"
       style="fill:none;stroke:#000000;stroke-width:0.264583px;stroke-linecap:butt;stroke-linejoin:miter;stroke-opacity:1" />
  </g>
  <g
     id="lay_8_0">
    <path
       id="path1349"
       d="m 136.12333,39.5127 c 0,0 -0.0276,-2.865781 -0.63618,-5.14332 -0.60863,-2.277536 -1.80894,-4.302934 -1.80894,-4.302934 l 1.79419,-1.062022 c 0,0 1.72346,3.3016 2.06965,5.377064 0.34619,2.075463 0.71344,5.177319 0.71344,5.177319 z"
       style="fill:#000000;stroke:#000000;stroke-width:0.065;stroke-linecap:butt;stroke-linejoin:miter;stroke-miterlimit:4;stroke-dasharray:none;stroke-opacity:1" />
  </g>
  <g
     id="lay_7_1">
    <path
       id="path1402"
       d="m 130.00403,34.791174 c -0.15262,0.06287 -3.90015,2.683025 -3.90015,2.683025 l -2.3273,0.02802 -0.0128,4.261786 2.20899,-0.0016 3.96141,2.863064 z"
       style="fill:#000000;stroke:#000000;stroke-width:0.065;stroke-linecap:butt;stroke-linejoin:miter;stroke-miterlimit:4;stroke-dasharray:none;stroke-opacity:1" />
    <path
       id="path1404"
       d="m 130.80408,36.518059 c 0,0 0.84215,1.33546 0.71118,3.391942 -0.13097,2.056479 -0.73045,3.1169 -0.73045,3.1169 l 0.46082,0.650992 c 0,0 0.93494,-2.111849 0.95637,-4.115536 0.0214,-2.003687 -0.97866,-3.916336 -0.97866,-3.916336 z"
       style="fill:#000000;stroke:#000000;stroke-width:0.065;stroke-linecap:butt;stroke-linejoin:miter;stroke-miterlimit:4;stroke-dasharray:none;stroke-opacity:1" />
    <path
       id="path1406"
       d="m 132.0995,44.718933 c 0.0347,0.07417 0.7961,1.26496 0.7961,1.26496 0,0 0.99485,-2.387561 1.20985,-5.139021 0.21501,-2.751463 -0.0844,-3.729281 -0.45547,-5.138901 -0.37112,-1.409621 -0.85343,-2.206197 -0.85343,-2.206197 l -0.70134,1.126824 c 0,0 1.26554,2.548561 1.13754,5.123008 -0.128,2.574443 -1.13325,4.969327 -1.13325,4.969327 z"
       style="fill:#000000;stroke:#000000;stroke-width:0.065;stroke-linecap:butt;stroke-linejoin:miter;stroke-miterlimit:4;stroke-dasharray:none;stroke-opacity:1" />
  </g>
  <g
     id="lay_7_0">
    <path
       id="path1352"
       d="m 133.3953,49.706284 c 0,0 1.53775,-2.075522 2.1243,-4.634918 0.58655,-2.559397 0.4821,-4.761585 0.4821,-4.761585 l 2.15724,0.05841 c 0,0 0.12184,3.446568 -0.83525,5.827784 -0.9571,2.381215 -1.95909,4.678465 -1.95909,4.678465 z"
       style="fill:#000000;stroke:#000000;stroke-width:0.065;stroke-linecap:butt;stroke-linejoin:miter;stroke-miterlimit:4;stroke-dasharray:none;stroke-opacity:1" />
  </g>
  <g
     id="lay_6_1">
    <path
       id="path1409"
       d="m 121.72683,54.737719 c 0,0 -0.16768,-0.360963 -1.25843,-0.269547 -1.09074,0.09142 -1.4454,0.633357 -1.43621,1.206286 0.009,0.572929 0.70843,1.195004 1.54559,1.157028 0.83715,-0.03797 1.81482,-0.483489 1.82275,-1.105117 0.008,-0.621628 -0.0845,-6.413761 -0.0845,-6.413761 l 4.23396,-2.033794 0.0488,5.398661 c 0,0 -0.51076,-0.543195 -1.16503,-0.513043 -0.65426,0.03015 -1.31178,0.539001 -1.39659,0.963758 -0.0848,0.424757 0.008,0.95246 0.3179,1.173681 0.30946,0.221224 1.28114,0.582758 1.85293,0.384315 0.57178,-0.198442 0.946,-0.712075 0.93509,-1.128574 -0.0109,-0.416502 0.10824,-9.23892 0.10824,-9.23892 l -5.38875,2.549163 z"
       style="fill:#000000;stroke:#000000;stroke-width:0.065;stroke-linecap:butt;stroke-linejoin:miter;stroke-miterlimit:4;stroke-dasharray:none;stroke-opacity:1" />
  </g>
  <g
     id="lay_6_0">
    <path
       id="path1355"
       d="m 133.08239,50.311404 1.79985,1.100818 c 0,0 -2.05148,3.311713 -3.31244,4.384548 -1.26097,1.072837 -4.2825,3.38075 -4.2825,3.38075 l -1.17484,-1.734971 c 0,0 1.82999,-1.177223 3.83355,-3.056202 2.00355,-1.878975 3.13638,-4.074943 3.13638,-4.074943 z"
       style="fill:#000000;stroke:#000000;stroke-width:0.065;stroke-linecap:butt;stroke-linejoin:miter;stroke-miterlimit:4;stroke-dasharray:none;stroke-opacity:1" />
  </g>
  <g
     id="lay_5_1">
    <path
       id="path1415"
       d="m 150.66264,56.95742 3.55138,9.667917 3.55214,-9.766861 -3.5901,1.209461 z"
       style="fill:#000000;stroke:#000000;stroke-width:0.065;stroke-linecap:butt;stroke-linejoin:miter;stroke-miterlimit:4;stroke-dasharray:none;stroke-opacity:1" />
  </g>
  <g
     id="lay_5_0">
    <path
       id="path1412"
       d="m 103.79325,60.002142 c 0,0 -4.371957,-2.841919 -6.814377,-6.31103 -2.44242,-3.469113 -3.56928,-6.316591 -4.00274,-8.559911 -0.43345,-2.243317 -1.09763,-5.421585 -0.38989,-9.200446 0.70773,-3.778864 2.05502,-6.290082 3.37585,-8.761187 1.32083,-2.471103 4.910967,-5.656683 6.253907,-6.540209 1.34294,-0.883526 5.17873,-3.275182 8.79084,-3.703778 3.61212,-0.428598 6.03528,-0.827825 10.02392,0.150167 3.98863,0.977993 6.48599,2.571142 7.46643,3.253571 0.98043,0.682429 4.85187,3.822575 6.51528,6.459008 1.6634,2.636433 2.97212,5.565103 3.43462,8.360894 0.4625,2.795791 0.68609,5.908021 0.18877,8.787543 -0.49731,2.879518 -1.39767,5.173525 -2.61952,7.123252 -1.22185,1.949728 -3.10705,4.846691 -4.70596,6.167681 -1.5989,1.320993 -4.48638,2.973613 -4.48638,2.973613"
       style="fill:none;stroke:#000000;stroke-width:0.465;stroke-linecap:butt;stroke-linejoin:miter;stroke-miterlimit:4;stroke-dasharray:none;stroke-opacity:1" />
  </g>
  <g
     id="lay_4_1">
    <path
       id="path1421"
       d="m 150.62586,46.951442 3.7302,9.681644 3.5218,-9.655969 -3.69827,1.554975 z"
       style="fill:#000000;stroke:#000000;stroke-width:0.065;stroke-linecap:butt;stroke-linejoin:miter;stroke-miterlimit:4;stroke-dasharray:none;stroke-opacity:1" />
  </g>
  <g
     id="lay_4_0">
    <path
       id="path1418"
       d="m 150.75046,37.220229 3.62383,9.877409 3.47515,-9.98887 c 0,0 -2.81052,1.283671 -3.29959,1.204957 -0.48907,-0.07872 -3.79939,-1.093496 -3.79939,-1.093496 z"
       style="fill:#000000;stroke:#000000;stroke-width:0.065;stroke-linecap:butt;stroke-linejoin:miter;stroke-miterlimit:4;stroke-dasharray:none;stroke-opacity:1" />
  </g>
  <g
     id="lay_3_1">
    <path
       id="path1429"
       d="m 150.6936,27.337097 3.50186,9.799878 3.62375,-9.721853 -3.49898,1.185151 z"
       style="fill:#000000;stroke:#000000;stroke-width:0.065;stroke-linecap:butt;stroke-linejoin:miter;stroke-miterlimit:4;stroke-dasharray:none;stroke-opacity:1" />
  </g>
  <g
     id="lay_3_0">
    <path
       id="path1424"
       d="m 128.73161,10.689519 0.12197,-2.1302189 c 0,0 0.0617,-1.211143 0.48063,-1.233244 0.41891,-0.02209 0.73984,0.582557 0.88082,2.067407 0.14098,1.4848469 0.27428,3.1447819 0.51158,3.7179699 0.2373,0.57319 0.36903,0.791048 0.60041,0.791048 0.23138,0 0.77935,-0.676703 0.82329,-1.871525 0.0439,-1.194824 0.0915,-1.834107 0.24686,-2.8302109 0.15536,-0.996103 1.14022,-0.741002 1.21437,0.581533 0.0742,1.3225389 0.17119,1.7648319 0.35987,2.2827489 0.18868,0.517916 0.87485,1.430025 1.25571,0.148 0.38087,-1.282023 0.38397,-2.006304 0.44629,-2.4133919 0.0623,-0.407088 0.61931,-2.239089 1.13472,-0.08673 0.51541,2.1523649 0.89623,3.6244059 1.61446,1.0807839"
       style="fill:none;stroke:#000000;stroke-width:0.865;stroke-linecap:butt;stroke-linejoin:miter;stroke-miterlimit:4;stroke-dasharray:none;stroke-opacity:1" />
    <path
       id="path1426"
       d="m 127.9814,10.678237 11.09401,-0.0054"
       style="fill:none;stroke:#000000;stroke-width:0.365;stroke-linecap:butt;stroke-linejoin:miter;stroke-miterlimit:4;stroke-dasharray:none;stroke-opacity:1" />
  </g>
  <g
     id="lay_2_1">
    <path
       id="path1461"
       d="M 150.49719,17.274508 154.21,27.20236 c 0,0 3.7439,-9.845844 3.66543,-9.829551 -0.0785,0.0163 -3.66304,1.316815 -3.66304,1.316815 z"
       style="fill:#000000;stroke:#000000;stroke-width:0.065;stroke-linecap:butt;stroke-linejoin:miter;stroke-miterlimit:4;stroke-dasharray:none;stroke-opacity:1" />
  </g>
  <g
     style="display:inline"
     id="lay_2_0">
    <path
       id="path1432"
       d="m 143.12915,7.5685841 c 0,0 -1.8554,0.96452 -2.14269,1.888688 -0.28729,0.9241689 -0.65112,1.6368529 0.2338,2.5389999 0.88493,0.90215 2.52362,0.910275 3.56433,0.344371 1.04071,-0.565907 2.60737,-1.09661 2.90284,-2.241457 0.29546,-1.1448469 -0.11299,-2.1362589 -0.53446,-2.5670249 -0.42147,-0.430768 -1.55366,-0.740772 -2.34696,-0.571965 -0.79331,0.168806 -1.67686,0.608388 -1.67686,0.608388 z"
       style="fill:none;stroke:#000000;stroke-width:0.165;stroke-linecap:butt;stroke-linejoin:miter;stroke-miterlimit:4;stroke-dasharray:none;stroke-opacity:1" />
    <path
       id="path1434"
       d="m 143.68031,8.7015161 c 0,-0.07832 0.477,-1.535546 0.477,-1.535546"
       style="fill:none;stroke:#000000;stroke-width:0.065;stroke-linecap:butt;stroke-linejoin:miter;stroke-miterlimit:4;stroke-dasharray:none;stroke-opacity:1" />
    <path
       id="path1436"
       d="m 142.35029,8.0808991 c 0,0 0.70046,-0.192161 1.33002,0.620617"
       style="fill:none;stroke:#000000;stroke-width:0.065;stroke-linecap:butt;stroke-linejoin:miter;stroke-miterlimit:4;stroke-dasharray:none;stroke-opacity:1" />
    <path
       id="path1438"
       d="m 147.78883,8.9236291 c 0,0 -1.93593,-0.651185 -3.12751,-0.285372"
       style="fill:none;stroke:#000000;stroke-width:0.065;stroke-linecap:butt;stroke-linejoin:miter;stroke-miterlimit:4;stroke-dasharray:none;stroke-opacity:1" />
    <path
       id="path1440"
       d="m 147.43879,7.9275361 c 0,0 -1.5684,-0.45743 -2.77747,0.710721"
       style="fill:none;stroke:#000000;stroke-width:0.065;stroke-linecap:butt;stroke-linejoin:miter;stroke-miterlimit:4;stroke-dasharray:none;stroke-opacity:1" />
    <path
       id="path1442"
       d="m 146.43555,11.457628 c -0.1161,-0.09967 -2.38448,-2.3143869 -2.38448,-2.3143869 l -0.18963,3.4876419"
       style="fill:none;stroke:#000000;stroke-width:0.065;stroke-linecap:butt;stroke-linejoin:miter;stroke-miterlimit:4;stroke-dasharray:none;stroke-opacity:1" />
    <path
       id="path1444"
       d="m 140.69076,10.881556 c 0,0 0.47172,-1.0476569 2.22114,-1.6454779"
       style="fill:none;stroke:#000000;stroke-width:0.065;stroke-linecap:butt;stroke-linejoin:miter;stroke-miterlimit:4;stroke-dasharray:none;stroke-opacity:1" />
    <path
       id="path1446"
       d="m 141.32393,12.086961 c 0,0 -0.44231,-0.726078 1.58797,-2.8508829"
       style="fill:none;stroke:#000000;stroke-width:0.065;stroke-linecap:butt;stroke-linejoin:miter;stroke-miterlimit:4;stroke-dasharray:none;stroke-opacity:1" />
    <path
       id="path1448"
       d="m 143.86144,12.630883 1.21093,0.03157 0.67499,1.657467 0.77544,-0.07574 -0.72566,-1.694444 0.63841,-1.092113"
       style="fill:none;stroke:#000000;stroke-width:0.065;stroke-linecap:butt;stroke-linejoin:miter;stroke-miterlimit:4;stroke-dasharray:none;stroke-opacity:1" />
    <path
       id="path1450"
       d="m 145.4461,13.465464 c -0.18097,-0.445752 -0.34059,-0.819854 -0.35471,-0.83134 -0.0186,-0.01511 -0.11604,-0.02093 -0.35239,-0.02103 l -0.32672,-1.53e-4 0.18375,-0.0822 c 0.10106,-0.04521 0.50698,-0.246401 0.90204,-0.447098 0.39506,-0.200695 0.72106,-0.363191 0.72446,-0.361098 0.003,0.0021 -0.1,0.185489 -0.22968,0.407551 -0.12973,0.222062 -0.23587,0.410929 -0.23587,0.419706 0,0.0088 0.15804,0.38477 0.3512,0.835541 0.19315,0.450768 0.34913,0.82125 0.34661,0.823296 -0.003,0.0021 -0.15647,0.01802 -0.34211,0.0355 l -0.33754,0.03178 z"
       style="fill:#000000;stroke-width:0.00410374;stroke-miterlimit:4;stroke-dasharray:none" />
    <path
       id="path1452"
       d="m 143.91063,12.450377 c 0.005,-0.06201 0.0433,-0.744178 0.0842,-1.515917 0.0409,-0.771742 0.0791,-1.4690597 0.0848,-1.5495936 l 0.0105,-0.1464283 0.59538,0.5819166 c 0.32747,0.3200533 0.83407,0.8137343 1.12579,1.0970653 l 0.53039,0.515152 -0.0543,0.03392 c -0.13902,0.08681 -1.77335,0.903605 -1.91176,0.955448 -0.12142,0.04547 -0.43893,0.140898 -0.46965,0.141147 -0.003,1.9e-5 -8e-4,-0.0507 0.005,-0.112712 z"
       style="fill:#000000;stroke-width:0.00410374;stroke-miterlimit:4;stroke-dasharray:none" />
    <path
       id="path1454"
       d="m 147.40236,8.7692736 c -0.30447,-0.085484 -0.81447,-0.1885474 -1.16095,-0.2346166 -0.3365,-0.044741 -0.9847,-0.053366 -1.22452,-0.016298 -0.0809,0.012515 -0.15119,0.018627 -0.1562,0.013626 -0.0186,-0.018547 0.29272,-0.2310686 0.47869,-0.3268398 0.30451,-0.1568185 0.57741,-0.2429616 0.93544,-0.295275 0.15194,-0.022199 0.26019,-0.026035 0.51783,-0.018362 0.28611,0.00855 0.38296,0.018124 0.52779,0.052303 0.0594,0.013996 0.21592,0.3801745 0.28951,0.6770899 0.0495,0.1997974 0.0527,0.2172441 0.0391,0.2155904 -0.007,-7.937e-4 -0.11808,-0.031112 -0.24671,-0.067223 z"
       style="fill:#000000;stroke-width:0.00410374;stroke-miterlimit:4;stroke-dasharray:none" />
    <path
       id="path1456"
       d="m 143.5508,8.49321 c -0.2723,-0.277749 -0.55583,-0.4263443 -0.88955,-0.4662011 -0.0535,-0.0064 -0.0911,-0.017701 -0.0835,-0.025109 0.0369,-0.036155 0.48726,-0.2961587 0.65691,-0.3792855 0.23955,-0.1173771 0.8252,-0.3559254 0.83165,-0.3387513 0.003,0.00701 -0.0553,0.1998372 -0.12865,0.4285086 -0.0734,0.2286714 -0.1663,0.5225494 -0.20645,0.6530631 l -0.073,0.2372968 z"
       style="fill:#000000;stroke-width:0.00410374;stroke-miterlimit:4;stroke-dasharray:none" />
    <path
       id="path1458"
       d="m 141.15195,11.782764 c -0.23071,-0.276929 -0.36402,-0.561001 -0.38475,-0.81987 l -0.01,-0.121904 0.0976,-0.145365 c 0.13033,-0.19404 0.51372,-0.576828 0.74253,-0.7413673 0.19409,-0.1395677 0.44705,-0.2951798 0.62699,-0.385699 0.1428,-0.071842 0.47028,-0.2126615 0.49454,-0.2126615 0.01,0 -0.0248,0.046982 -0.0766,0.1044019 -0.85729,0.9509279 -1.33697,1.7439769 -1.39177,2.3010259 l -0.0123,0.12528 z"
       style="fill:#000000;stroke-width:0.00410374;stroke-miterlimit:4;stroke-dasharray:none" />
  </g>
</svg>
